<?xml version="1.0" encoding="UTF-8"?>
<svg id="Calque_1" xmlns="http://www.w3.org/2000/svg" version="1.1" viewBox="0 0 1286 950">
  <!-- Generator: Adobe Illustrator 30.0.0, SVG Export Plug-In . SVG Version: 2.1.1 Build 123)  -->
  <defs>
    <style>
      .st0 {
        fill: #a0be9b;
      }

      .st1 {
        fill: #e2c62f;
      }

      .st2 {
        fill: #f68503;
      }

      .st3 {
        fill: #151505;
      }

      .st4 {
        fill: #1c340a;
      }

      .st5 {
        fill: #a17f0c;
      }

      .st6 {
        fill: #225a20;
      }

      .st7 {
        fill: #fbc51f;
      }

      .st8 {
        fill: #145211;
      }

      .st9 {
        fill: #163415;
      }

      .st10 {
        fill: #d9a91a;
      }

      .st11 {
        fill: #b69110;
      }

      .st12 {
        fill: #c8a013;
      }

      .st13 {
        fill: #f6bf19;
      }

      .st14 {
        fill: #f88604;
      }

      .st15 {
        fill: #145412;
      }
    </style>
  </defs>
  <path class="st9" d="M1000,275c2.61.56,2.04-1.3,2.48-2.97,8.99-34.54,16.01-62.32,44.51-86.54,36.83-31.29,94.49-33.64,137.71-14.68,2.8,1.23,16.74,7.53,13.31,11.19-8.65.79-16.92,3.48-24.96,6.55-13.61,5.2-31.11,18.18-44.81,19.2-12.18.9-22.89.64-35.48,3.51-1.4.32-9.57,2.43-7.75,4.74,10.15-2.83,21.28-1.64,31.42,1.08,1.9.51,13.37,3.58,10.57,6.91-.39.46-8.96,3.19-11.19,4.32-23.65,12.03-47.42,28.44-68.73,44.27-1.3.97-11.45,8.08-10.08,9.41,21.75-10.62,43.12-20.83,66.78-26.71,77.73-19.33,160.96,5.62,179.75,90.68l2.47,13.03v29c-3.49,2.57.1,7.63-5.3,5.8-1.98-.67-5.15-5.15-7.22-6.78-4.48-3.53-10.23-6.83-14.49-10.51-18.04-15.6-29.35-40.65-46.49-57.51l15.5,52.99c-2.57,2.4-20.03-5.26-23.67-6.82-13.43-5.78-29.22-15.27-40.83-24.17-4.79-3.67-15.87-15.77-19.58-17.58-1.3-.64-1.82.59-1.92.58-2.73,3.81-7.28-2.06-4.22-5.38,4.89-5.3,17.55,7.45,20.12,11.69,6.74,3.94,13.05,8.48,18.94,13.62,4.29.66,7.06,2.4,8.29,5.23,11.51,6.69,23.8,13.49,36.47,17.78-3.97-10.66-7.59-21.53-10.84-32.63-1.63-5.36-6.52-21.89,2.34-22.08,1.61-.04,19.67,22.06,21.28,24.09,6.32,10.48,14.1,20.82,22.5,29.91,2.29,2.48,21.9,20.4,23.81,20.39,1.24,0-.24-15.64-.58-17.11l1.87-1.5-1.11-1.62c-.67-16.21-4.23-32.21-9.89-47.38-.89-.27-.87-.6,0-1v-1l-2.11.32c-8.62-13.69-17.14-26.61-30.87-35.82l-.03-2.49c-2.36-.56-5.72-1.66-7-4-2.37,1.71-3.62.81-3-2-9.34-5.44-19.06-9.77-29-14-.94,2.73-3.13,2.88-4,0-22.2-8.21-49.19-5.91-73.13-3.06l-1.87-.94-1.66,2.34c-8.18,2.46-16.43,4.52-24.76,6.17l-3.75,2.93c-18.17,3.82-34.39,11.13-49.88,20.53-17.72,9.74-17.59-4.66-4.42-12.59,22.63-15.44,45.69-30.76,69.17-45.93,13.03-5.15,14.23-7.45,3.63-6.91-7.08-1.44-13.63-1.92-20.75-.93-5.44,1.31-11.25-4.77-9.03-9.09.74-1.44,15.55-5.91,18.41-6.39,17.01-.87,33.32-3.76,48.93-8.67,13.33-7.37,26.82-14.37,41.66-18.11-7.06-2.64-14.43-5.68-22.13-9.12l-.41-2.21h-3c-.25.87-.58.85-1,0-3.76-.18-7.43-.85-11-2-.33.87-.67.87-1,0-18.68-2.6-39.61-2.78-58,2l-2.72,2.64c-51.39,13.37-74.49,62.36-82.88,111.08-3.06,7.01-8.76-2.82-5.4-5.71ZM1035.99,282.01c-1.38-.31-2.66.54-2.99,1.98h2.99s0-1.98,0-1.98ZM1029.5,285v1c.65-.33.65-.67,0-1Z"/>
  <path class="st15" d="M5,289c-3.36-23.53-3.07-44.37,4.05-67.04.2-.65,1.17-1.15,1.84-1.45,1.58-13.8,12.61-29.23,21.6-40.01,23.9-28.66,61.64-51.58,99.07-53.37,8.82-4.23,22.62-4.57,32.8-4.65,31.94-.27,76.61,9.55,102.75,28.51.51.37.74,1.14.89,2.01,1.9,4.91,2.61,10.71,3,16,.79,1.04,1.46,2.04,2,3,.89.19.85.52,0,1,1.04,2.29,1.04,3.96,0,5,2.78,5.1,2.82,9.51.13,13.22,2.99,10.33,12.35,15.15,21.41,19.65,3.34,3.71,6.53,7.57,9.56,11.57,10.42,1.68,21.23.89,32.43-2.36,5.91,1.7,9.67.55,11.29-3.44,3.3-2.6,13.07-1.16,14.19,2.36.29-.41.59-.77.98-.99,1.14-.63,14.36,11.48,16.69,13.69,54.08,51.06,90.45,136.69,53.86,208.32-1.31,2.56-21.08,34.77-25.27,33.91-1.07-.22-1.68-1.02-1.88-2.03.92-26.99-1.48-56.71-8-83.18-.32-1.3-3.44-1.7-4.31.14-5.94,10.74-12.7,21.93-22.19,30.32-.32.28-1.05.11-1.89-.19-3.19-3.19-5-7.54-5.45-13.04l-8.18-44.2c-1-8.35-3.04-16.46-6.12-24.34l1.76-1.41-1-1c-2.62-.7-2.29-1.74,0-3-4.07-16.77-9.4-32.77-16-48-2.66-.03-3.15-1.4-1-3-.88-6.46-4.64-13.26-8-19l-1.48-.06c-1.04-2.65-2.55-4.96-4.52-6.94-2.68.84-3.05-.07-1-2,1.52-3.36-3.83-1.22-4.51.84-20.59,62.17-24.92,140.19-22.29,205.62,4.27,106.36,32.16,203.69,84.12,295.86,3.98,7.06,21.26,37.33,26.45,40.36.87.51,2.13.3,2.82-.47,19.36-30.71,58.07-57.07,94.32-60.44,14.76-1.37,9.89,3.59,1.84,9.71-21.7,24.28-38.67,54.14-50.76,84.91-.6,2.9,24.88-17.05,25.78-18.37,29.18-21.05,71.66-46.28,107.95-48.37,14.58-.84,10.06,5.65.98,10.87-17.38,15.39-31.5,34.02-44.71,52.98-3.63,2.96-8.22,10.7-3.99,13.91,30.94-3.72,63.47-3.24,94.55-2.55,9.13.2,18.25.63,27.26,1.99,1.36.2,2.53.99,2.94,2.28,12.16-1.72,24.79-1.29,37.89,1.27,23.26,4.19,46.11,7.87,68.54,11.04,1.03-.47,2.98-2.32,3-2.79.3-7.31-47.02-47.75-56.43-53.59-12.95-5.75-2.49-7.4,6.24-7.27,40.08.6,71.32,11.99,103.83,33.29,1.84.34,1.32-4.2.83-5.83-7.73-25.44-21.95-48.26-38.42-68.57.29-3.64,2.1-3.87,5.16-1.8,35.4,4.33,66.53,26.71,80.46,59.29,2.59,1.41,10.24-7.86,12.06-10.13,22.62-28.24,42.21-52.98,59.91-85.05,24.59-44.54,43.26-95.14,53.57-143.91,3.66-17.29,6.73-37.12,8.78-56.08l1.85-5.01.37-1.08c4.67-29.66,5.29-63.59,1.63-93.92l-1.43-1.53c-1.59-19.02-4.18-37.86-7.78-56.5-2.33-8.27-3.86-9.36-7.36-1.49-9.81,22.05-20.13,42.25-31.39,63.62-1.59,3.01-8.9,16.81-11.75,19.35-8.29,7.41-8.64-10.91-8.32-16.06-.78-3.71-2.77-2.72-5.95,2.97-4.36,14.24-9.09,28.39-14.17,42.44-1.56,14.64-4.44,29.34-8.66,44.1.74,2.43-1.45,14.95-2.71,15.81-4.23,2.9-13.99-14.98-15.68-18.36-4.78-18.89-8.87-3.57-9.35,7.04l-1.45.6c-2.16,17.58-3.56,35.18-2,53.53-.25,1.15-1.62,1.74-2.87,1.68-3.5-.17-17.31-24.12-19.75-28.92-42.2-82.8,12.16-170.65,86.79-209.05l1.83-1.25-1-2c-47.4,1.1-94.76,27.65-126.92,62.34-1.77,2.32-2.54,2.31-3.68.15-3.01-5.68,7.78-41.56,13.98-48.67l-.38-1.83c-1.34,1.42-2.01,1.42-2,0l-2.04.75c-23.88,23.43-46.87,47.52-68.96,72.25-.49-.01-.96-.08-1.33-.3-.93-.55-.19-19.47.13-21.55.04-.27.56-.47,1.21-.65-.62-.22-1.1-.44-1.1-.67.04-18.3,16.69-51.12,27.66-64.78,36.38-45.31,112.03-63.07,162.45-34.05,1.92-.96,3.13-2.31,3.63-4.06-19.72-13.13-39.71-26.92-59.97-41.36-13.48-8.62-26.75-16.15-42.39-17.47l-.28-1.11-.97.58c-6.38-3.42-13.77-4.43-22.18-3.02-7.13-1.47,2.5-10.4,6.16-13.23,5.01-3.88,13.22-7.84,19.09-10.48s30.01-12.44,33.97-7.76c-.48,4.29.83,8.26,3.92,11.91,1.73-.22,2.38.8,1,2,1.35,4.61,2.89,9.01,4.61,13.21,16.66,11.72,30.05,19.28,52.02,14.33,8.43-1.9,15.04-7.59,19.41-14.74l2.67-2.03c12.84,14.83,22.61,31.24,29.28,49.23l1.01.34c-.03,2.68.64,4.9,1.99,6.66.06.32-.06.68,0,1,.73,3.94,1.41,2.62,1.69,3.27.72,1.64-.51,3.9,1.3,3.73,4.4-15.82,7.53-33.57,13.72-48.76,12.58-30.91,40.14-59.54,74.3-66.23,18.54-4.78,39.13-4.6,58-2,.33.03.67-.03,1,0,3.55,1.17,7.22,1.83,11,2,.33.04.67-.05,1,0h3c2.89.62,12.83,5.97,13.6,5.98,6.4.11,3.17,1.57,5.13,2.04,3.42.83,5.23-.89,6.26,4.97-5.8,1.45-12.46,3.34-17.99,5.52-9.08,3.58-17.68,9.03-25.27,12.73-19.84,9.66-44.78,3.76-63.51,13.53-1.31.68-5.04-.55-2.55,2.22.2.22,4.22,1.51-.68,2.02,4.01,4.57,12.39,1.63,17.52,1.91s10.43,2.52,15.75,1.3l6.73,3.27c-3.99,3.79-9.9,5.18-14.31,7.69-17.69,10.07-33.81,21.9-50.35,33.65-6.21,4.41-23.76,13.8-26.81,20.19-.63,1.32-.64,2.56-.52,3.97,3.27,3.31,23.98-10.41,28.11-12.38,11.77-5.62,20.8-7.72,33-11.04,1.89-.52,1.67-2.78,4.83-3.17,10.44-1.3,15.81-4.69,26.06-6.4,1.44.25,2.35.66,1.21.85,24.27-2.52,50.44-5.21,73.79,3.15,1.18.24,2.81-.23,4,0,9.94,4.17,19.65,8.6,29,14,.87.55,2.19,1.45,3,2,1.45,2.34,5.28,3.86,7,4,4.21,2.94,13.43,10.95,16.97,14.53,1.16,1.17,15.53,22.14,16.03,23.47v1c.08.31-.08.69,0,1,5.95,14.79,9.08,33.89,10.25,47.36l.75,1.64c.21,3.25,2.9,20.33-.52,21-2.07.41-15.27-11.51-17.84-13.64-8.51-7.05-10.58-10.67-16.96-19.05-2.43-3.19-4.85-5.14-7.56-7.92-2.5-2.56-2.43-5.42-3.69-7.33-3.1-4.7-7.82-9.28-11.46-13.54-1.61-1.89-10.61-13.08-11.48-13.52-2.71-1.37-2.56,7.14-2.41,8.41,1.09,9.56,8.6,28.28,11.39,39.62.42,1.7,4.51,6.03.94,6.92-1.7.43-9.55-3.15-11.77-4.1-8.3-3.54-16.24-8.84-23.83-12.15-4.66-2.03-3.43-4.14-4.41-4.8-1.21-.81-4.3-.95-6.56-2.26-2.76-1.59-7.42-6.2-10.2-8.29-2.63-1.97-6.47-3.21-9.54-5.97-2.76-2.48-5.76-7.89-9.19-9.81-1.47-.82-7.07-2.41-7.91-1.58-1.43,1.42.69,3.7,3,3.99.71.68.69,2.61,1,3,1.7,2.07,1.38,6.89-2.14,6.3-27.72-8.55-55.79-13.27-84.97-12.38-2.29,1.04-2.17,2.31-1.15,4.2,53.91,15.32,102.69,48.72,123.65,103.44,13.27,34.65,10.29,78.37-3.47,112.5-1.23,3.06-12.54,25.45-16.74,20.62-.66-9.33-1.01-18.59-1.07-27.77-3.88-9.1-5.47-20.24-6.52-30.22-2.76-4.36-4.83-8.03-4.38-13.65-6-11.29-11.41-23.6-15.06-36.03-.96-1.63-1.48-2.34-3.15-1.01.89.19.85.52,0,1-1.3,1.32-1.3,2.65,0,4,2.39.31,2.31,1.32,0,2,1.14,8.1.12,16.11-2.12,23.97,1.05,4.46.21,22.8-8.09,16.98-12.42-46.41-39.47-87.18-66.45-126.09.4-1.78-22.25-30.77-23.27-27.4,1.08,5.01,1.05,9.86-.07,14.53l1,1c2.3.16,2.2,2.39,0,3,17.05,89.95,17.13,183.06,0,273,.87.25.85.58,0,1-1.34,3.12-2.23,6.57-2,10,2.4,1.61,1.87,3.21-1,3l-6.32,24.22.32,4.78.8,1.91c-3.04,14.72-7.76,28.4-14.13,41.03l-.19,4.61c-9.5,28.79-23.14,56.48-38.54,82.38-1.27,2.97-.26,3.61,2.59,3.15,13.51-7.12,28.62-11.77,43.52-16.2,24.76-7.36,51.38-11.4,77.22-6.17,1.48,1.37.96,3.97-.35,5.27-16.76,8.41-32.77,16.61-48.87,27.3-3.93,2.61-34.13,23.39-35.09,26.91-.03.12.08,2.17.13,2.29.27.71,13.71-1.14,14.94-1.33.18-.63.37-1.12.64-1.16,42.75-6.29,74.82,1.32,114.33,19.7.88.41,1.11,1.33,1,2.31,3.89,3.07,8.22,5.74,13,8,.19-.88.53-.85,1,0l1,1c.86-.42,1.16-.04,1,1,1.76.68,3.1,1.68,4,3,1.83-2.11,4.92-.6,5,2l1,1c2.01-.8,2.81-.01,2,2,.79.81,1.79,1.47,3,2,2.02-2.07,3.46-.82,3,2,2.56,1.56,1.05,6.16-2,6-.78,2.77-3.25,2.83-4,0-47.92-1.34-96.49-1.81-145.71-1.42l-2.29,1.42c-.6,1.46-1.4,1.46-2,0-4.31-1.88-9.54-2.47-15.68-1.78-61.97,1.24-122.76,1.14-182.37-.32,1.45-.02,1.14.35-.95,1.09.73.47.4.8-1,1l-.69.95c-17.8-.03,1.44,4.44,8.3,5.99,30.44,3.38,60.42,9.34,89.87,18.07,10.07,2.98,26.39,8.22,35.33,13.05.58.31.92,1.06,1.19,1.94l-1.06,2.03c-197.92,1.06-397.09,1.56-597.5,1.48-1.28-.06,2.06-3.09,2.56-3.5-.83-.3-1.84-.81-1.83-1.54.05-3.24,42.21-15.38,48.82-17.1,27.01-7.03,54.56-12.83,82.63-15.84l2.38-1.52c2.16-.72,3.49-1.38,4-2l-2.71-1.81c-2.22,1.16-8.71.85-9.29-1.19-1.36-.25-2.32-.44-1.26-1.07-106.76.49-213.89,1.14-321.38,1.96.57.42.11.78-1.36,1.11-.7,2.39-3.24,2.42-4,0-3.19.33-4.85-.33-5-2,.04-2.89,1.14-3.25,3-1,3.35-.98,6.35-2.32,9-4,.33-.87.67-.87,1,0,5.87-2.05,11.87-3.71,18-5,.25-.89.58-.87,1,0,6.82-1.01,13.16-2.34,19-4l.72-2.23,11.08-3.43c-.78-.51-1.16-.98-.55-1.99-28.67-9.73-58.16-14.53-87.78-19.19-.8-.13-1.22-1.23-1.48-2.15l-1.78-2c31.56-17.74,69.1-22.72,104.78-19,.74-.68,1.61-1.39,2.59-1.35,13.13.6,26.81,5.2,38.96,9.45l.45-1.1c-.06-.66.04-1.34,0-2-1.39-1.01-1.82-1.81-.46-2.07-23.17-23.78-47.38-48.07-76.32-64.09-6.42-8.63,12.86-7.32,17.28-5.8,10.85-1.88,23.68.59,34.45,3.64,28.44,8.03,53.64,21.24,77.18,37.64l2.12-2.27c-9.78-18.82-18.69-38.97-26.73-58.67.37-1.71-.07-2.72-1.32-3.04-5.9-15.24-12.28-31.86-14.77-47.82-4.89-13.04-9.04-26.41-11.47-40.17-3.11-13.2-5.68-26.86-7.91-40.47-.24-1.45-.08-2.7.95-3.87v-1c-2.32-.22-2.26-1.38,0-2-1.19-18.52-3.37-40.24-6.7-57.86l-.3-1.14c-2.27-1.8-2.25-4.19,0-6-1.34-34.15-1.34-67.48,0-100-2.01-.23-1.93-1.23,0-2l.33-.98c3.12-19.26,5.86-41.92,6.67-62.02-.75-2.02-1.06-4.11-.71-6.24,6.77-41.58,15.47-84.38,29.84-123.53.68-1.89-.96-3.8-2.87-3.2-13.32,4.16-36.14,33.73-44.9,46.15-.33.47-1.13.45-1.73.4-14.6,23.37-29.56,47.82-43.71,72.13-2.59,6.31-5.7,12.51-9.32,18.59-2.73,14.52-8.05-6.31-9.09-11.82-2.83-14.94-4.36-31.48-1.92-46.46,2.9-.65,1.45-17.25.19-16.34-2.07,1.48-4.19,7.82-5.01,10.43-8.81,38.28-18.17,76.77-37.33,111.4-1.29,2.33-11.61,17.89-12.71,17.82-2.32-.13-4.02-4.95-.72-5.32-19.91-38.4-13.66-83.06-2-123-.5-1.56-.66-3.18-.13-4.74,3.2-9.45,10.39-20.95,16.01-29.35,29.09-43.47,72.7-72.83,122.26-86.76.64-1.84-.07-3.22-2.14-4.15-18.98.35-37.98,1.68-57,4l-1.56,1.41c-18.48,3.27-35.86,9.83-52.49,17.9-10.57,4.35-9.26-1.41-6.66-8.72.02-.87-.41-1.73-1.29-2.59.14-.59-.14-1.41,0-2-1.02-1.7-1.65-1.69-3.07-.48-13.19,15.62-28.2,29.38-45.01,41.29-5.69,2.37-5.6-11.67-4.57-14.82l2.28-14.17c-.08.8-.7.74-1.63.18.33-1.59.52-2.44,1-4-.51-1.71-2.13-1.31-3.14-.06-3.96,6.38-8.06,12.93-14,17.56-.52,3.31-2.72,6.99-5.89,8.22-3.65,10-41.65,50.43-48.84,49.82-1.12-.1-1.87-.26-2.14-1.54-.24-.36-.83-.65-1-1Z"/>
  <path class="st2" d="M352,81c.35-.38.72-.71,1.15-.89.55-.23,6.29,1.14,7.98,1.63,27.76,8.01,33.76,38.26,28.86,63.27.06.35-.1.75,0,1,.78,2.39-1.18,6.03-3,7-1.53,3.55-2.86,7.22-4,11,.87.27.85.61,0,1-4.26,8.56-9.26,16.89-15,25,1.3,1.47.72,2.01-1,1-23.91,25.16-69.96,24.33-88-7-.87-.33-.87-.66,0-1-2.62-4.52-4.62-8.85-6-13-.89-.19-.85-.52,0-1,.04-3.54-.63-6.54-2-9-1.87-.6-1.85-1.38,0-2-1.12-15.94,4.11-33.25,13-47,6.05-12.66,14.4-22.44,27.76-28.74,16.44-7.75,23.94-5.46,40.24-1.26Z"/>
  <path class="st14" d="M966,211c.36,2.65-.07,2.96-2,1l-1,1c.27.94-.06,1.27-1,1-9,8.72-19.58,11.53-31.79,11.37-6.71-.09-16.54-.42-21.21-5.37-1.34,1.42-1.93.8-1-1-6.71-3.6-12.8-7.38-17-14-1.06,1.61-2.31.82-2-1-4.36-.27-3.84-5.4-1.83-8.56,6.86-10.83,21.48-2.92,29.62,1.63,7.57,3.18,13.83-1.43,19.02-6.74l2.19.67,3-5c-1.29-1.46-.71-2.01,1-1,2.09-4.27,5.74-15.39-2-14,.5,2.69-.02,2.84-2,1-.72,2.43-1.72,4.76-3,7,.31.97-.02,1.31-1,1l-5,3c-.1.92-.45.86-1,0-6.12,2.47-11.56,2.83-16.32,1.09-5.15,2.74-11.4-1.24-14.35-5.65-5.55-8.3-7.56-20.56-8.7-30.32l-.63.89c-1.68-1.32-1.06-4.85-1-7l-2.92-31c-.18,1.13-.54.8-1.08-1-.28-3.97-1.39-8.87-1.03-12.51.79-8.07,8.81-12.15,15.53-7.49,15.35,10.64,12.25,40.66,18.17,56.83.67,1.84,3.45,6.22,5.64,6.02.84-.08,15.03-5.81,15.66-6.37,9.5-8.35-1.36-51.96,7.61-66.39,6.83-10.98,16.54-4.66,22.4,3.41,5.52,7.59,7.79,25.52,8.99,35.01,2.9,22.93,6.26,74.73-9.99,92.49Z"/>
  <path class="st14" d="M686,161c-7.2-21.83-.42-39.5,16.99-53.51,11.68-9.4,41.7-18.82,46.74,1.31,3.84,15.33-10.08,18.49-19.64,24.78-8.6,5.65-15.43,11.72-9.8,22.63,6.41,12.43,25.09,1.67,35.3,5.7,2.24.88,3.04,3.14,5.42,3.07,4.16-18.59,10.61-36.59,15.54-54.96,4.29-15.99,6.32-32.29,12.01-47.99,3.4-9.39,7-21.85,19.71-19.81,15.4,2.47,14.02,22.75,12.62,34.14-1.31,10.65-5,20.9-5.87,31.62,12.97-4.54,26.6-19.12,40.65-19.91,6.88-.39,13.76,5.41,15.34,11.92.84,11.34.24,22.83-2,34-.04.33.04.67,0,1-1.08,1.7-1.75,4.03-2,7-.03.33.04.67,0,1-3.04,13.95-7.5,27.36-13.37,40.24-15.15,17.08-29.38-8.77-24.2-24.88l5.59-29.86c-.03-8.5-4.77-4.61-8.49-.39-15.29,17.38-25.66,33.94-35.54,54.89.57,5.62-6.8,8.33-11.66,8.99-16.37,2.22-16.65-13.46-15.7-25.59-4.42,39.58-67.71,35.72-76.03-.73-4.32-.18-5.1,1.61-2.62,5.47,2.04,13.99,2.72,20.6-12.58,24.63-11.4,3-23.59,1.86-31.33-7.84-1.88-2.36-11.78-20.76-11.58-22.98.07-.83.8-1.45,1.5-1.94l-1.97-1.02c-.1-7.91-.45-15.81-1.05-23.72-7.57-7.02-12.76-14.97-7.98-25.26,1.47-2.3,4.19-4.02,4.79-6.71,3.45-15.26.04-45.32,10.78-57.22,6.69-7.42,18.72-3.87,21.66,5.19,3.5,10.8-4.14,44.57-1.77,48.78.89,1.33,1.45.39,2.3.3,6.36-.69,13.09-4.77,19.6-4.26,13.53,1.07,13.94,13.74,4.66,21.44-7.98,6.62-22.24,7.19-21.68,19.83.12,2.74,2.28,16.33,3.11,18.68.72,2.04,2.87,4.52,5.07,4.93,1.13.21,11.93.83,12.81.71,1.29-.17,3.32-2.04,4.66-2.69,1.35-1.68,1.35-2.01,0-1Z"/>
  <path class="st8" d="M358,75l3.12-1.85c38.6-45.29,110.99-68.96,162.04-31.14,13.82,10.24,30.14,28.51,34.47,45.4.12.45-.19,1.01-.62,1.6,3.34,2.98-.85,3.48-4,3-7.43-1.68-14.88-4.61-22.14-6.36-13.16-3.17-23.1-1.13-34.06-10.66-2.07-1.8-7.1-8.43-8.8-8.98-1.56-.74-3.22-1.07-5-1-.33-.04-.67.02-1,0-1.25-.87-2.69-.75-4,0-3.26.77-9.39,5.63-12,8-1.03.05-1.7.71-2,2-.59.59-.88,1.72-2,2-.82-.32-1.49-.99-2-2-1.72-.02-1.6-1.55,0-2l-1-3c-.88-.15-.69-1.42,0-2-.61-.51-.94-1.51-1-3-2.68,1-3.86-.85-2-3-.99-4.49-3.34-6.06-9.67-6.34-17.82-.8-33.06,16.84-42.74,29.95-6.88,9.32-9.41,16.59-6.76,28.37-.28,1.59-5.3,1.43-6.31.82-4.11-15.71-13.34-28.07-29.29-33.17l-.23-1.62c-3.21-.28-4.54-1.28-4-3-.46-.86,0-1.89,1-2Z"/>
  <path class="st14" d="M484,204c-5.15-5.57-8.59-10.55-11.59-18.28-10.88-28.02-11.97-73.07-3.34-101.97,2.16-7.22,9.13-15.92,16.15-8.55.6.63,3.05,3.21,3.13,3.43,3.32,18.38,4.56,36.89,3.72,55.53.23,10.12,1.76,20.22,4.93,29.84,2.91,5.99,8.21,15.75,15.91,13.41,4.81-1.46,6.66-5.74,10.53-7.48,5.92-2.65,18.53-4.57,24.96-3.83,5.37.62,15.63,4.38,17.61,9.89,2.05,1.61,1.62,7.21-1,8,.89.34,1.74,1.12,1.41,1.85-2.33,5.09-12.41,11.56-17.55,13.21-3.45,1.11-11.38,3.14-13.86.94-.77,2.18-2.94,3.26-6.52,3.23-12.07,4.94-23.44,9.16-36.69,6.01-2.62-.62-7.87-2.6-7.79-5.24Z"/>
  <path class="st9" d="M250,198c4,1.08,2.92,1.83,4.77,2.94,1.25.74,4.22.21,4.22,2.05-5.58-1.39-9.69,2.01-14,3.33-17.08,5.25-35.68,12.08-52.23,22.67-33.83,21.64-64.5,56.23-78.76,94.01-11.88,40.19-17.82,84.26,2,123,.11.17-.29,5.51,1.99,3,.28-.31,2.35-6.11,3.37-7.65,1.66-2.5,5.84-6.46,7.08-9.39,2.91-6.84,7.25-11.34,10.08-18.94,7.6-20.4,14.64-42.54,20.44-64.57,2.75-10.45,5.3-26.96,9.91-35.29,1.18-2.14,3.45-9.52,4.86-2.42.58,2.94,1.32,12.6,1.36,15.84.02,1.82-1.87,1.24-2.07,2.1-2.56,11.3.42,42.86,3.83,53.95.45,1.45,1.96,1.34,2.13,2.07.2.84-.59,7.84,2.02,5.29.99-.96.12-4.42.3-4.8.06-.14,1.63-.33,2.32-2.07.94-2.4,1.67-7.26,2.35-8.49.64-1.15,2.48-.33,2.88-.74s.23-5.14,1.37-7.23c10.07-18.49,22.2-36.94,33.83-55.13,3.22-5.03,7.74-14.38,10.99-18.53.08-.11,1.46.99,1.79.79.9-.55,10.47-14.3,12.67-16.8,5.74-6.54,17.08-19.58,23.49-24.51,2.78-2.14,11.31-7.69,13.88-3.3,1.02,1.74-4.28,13.14-5.14,16.04-5.81,19.51-11.02,40.81-15.29,60.75-3.76,17.58-7.09,37.38-10.43,56.04-1.46,19.91-3.14,40.12-5.61,59.99-.13,1.05-.7,2.04-1.39,3.01-.05.66.05,1.34,0,2-1.61,33.59-1.61,66.92,0,100,0,2-.05,4.01,0,6,.64.57,1.16,1.16,1.24,1.8,2.36,18.28,4.29,36.93,6.14,55.28.06.62-.12,1.27-.38,1.92.1.64-.1,1.37,0,2v1c1.47,9.1,3.42,17.27,4.25,25.24.43,4.16,3.7,10.73,3.74,11.35.95,18.4,6.35,30.31,12.18,46.78,1.28,3.61.37,7.7,1.66,11.27,2.66,7.36,5.86,18.08,8.62,25.37.98,2.59,2.58,8.63,3.5,10.35.7,1.3,2.77.38,3.04.64.3.3-.78,3.55-.57,5.04.6,4.22,4.31,8.13,5.47,10.78,3.88,8.81,7.13,19.26,10.73,27.16,1.73,3.8,10.89,18.67,10.44,21.42-.11.66-3.48.05-1.07,4.58l-33.97-21.52c-19.58-8.64-42.03-19.59-62.53-21.29-4.77-.4-4.12-1.01-5.92-1.27-4.42-.62-8.58,1.15-12.12,1.12s-17.79-3.97-16.33,2.34c.49,2.1,6.06,3.02,7.79,4.21,6.39,4.41,13.63,10.13,20,15,17.52,13.39,32.65,29.27,48.16,44.88,2.06,1.56-.09,3.33-.07,3.53-11.75-9.94-21.55-22.28-32.99-32.51-14.26-12.78-37.03-29.09-54.04-37.82-1.82-.93-1.68,2.41-1.99-3.65,52.38-7.19,100.05,12.75,142,41.99-4.12-9.68-9.82-18.77-14.17-28.32-71.59-157.18-73.51-350.87-23.52-514.89,1.58-5.17,3.62-10.3,5.68-15.31-1.53-2.14-1.41-.95-2.62-.66-5.23,1.22-19.1,15.89-23.38,20.65-31.09,34.57-51.68,76.42-74.73,115.71-.23.39,1.61,3.27-2.26,5.32s-4.88-3.85-6.01-6.98c-4.77-13.25-7.27-38.02-5.98-52.03.54-5.86,3.7-13.14,3-19.49-.69-.95-3.61,7.31-3.94,8.55-2.88,10.69-5.23,23.86-8.14,34.86-9.02,34.05-19.56,67.76-42.03,95.46-4.52,2.61-10.21-13.63-11.32-16.91-35.05-102.97,40.19-201.12,135.45-231.95l3-1c2.29-.74,4.42-2.12,6.99-2.01v-.97s-1.99-1.02-1.99-1.02c-.87-.28-.86-.62,0-1ZM182.5,772v1c.65-.33.65-.67,0-1Z"/>
  <path class="st9" d="M1028,362c-.73-5.29-1.41-10.69-2-16,4.08-4,15.82,12.64,18.01,15.53.66.87,2.26,1.09,2.7,1.75.8,1.23.56,4.48,2.23,6.07.96.91,2.53.45,2.85.81.61.68-.05,2.84.65,3.9.79,1.2,3.23.71,3.55.99.11.1-.95,1.51-.48,2.87,2.36,6.81,19.1,28.74,24.24,36.86,12.26,19.35,22.63,37.88,31.02,59.95,1.41,3.7,7.14,24.03,8.17,24.83,1.71,1.34,4.52-.51,4.92-2.26.37-1.63-1.06-3.31-.91-4.69.07-.66,1.96-.53,2.11-1.26.37-1.84-1.21-4.53-1.12-6.84.11-2.78,2.54-7.37,2.95-11.13.48-4.38-.94-9.47,1.13-13.37,1.03-.35,1.7.98,2,4-.27,8.2-.29,10.47-1.98,17.69-.67,2.87.11,7.55-.47,11.36-.47,3.08-3.95,17.9-8.11,14.02s-7.43-21-9.78-27.22c-13.29-35.1-32.87-66.15-54.22-96.78-7.63-10.95-15.44-21.79-23.95-32.06-2.4-.7-.52,6.12-.33,7.33,3.52,22.43,9.72,43.23,10.84,65.66l1,11c0,.33,0,.67,0,1l1,6c.02,1.33,0,2.67,0,4,.68,4.96,1.01,9.96,1,15,1.82,26.7,1.36,54.23,0,81,.06,7.03-.27,14.03-1,21-.38,10.38-2.42,26.32-3.95,37.55-8.8,64.88-28.37,132.13-58.53,190.47-3.98,7.7-8.81,15.12-12.52,22.97,32.47-14.64,67.17-26.76,103.54-25.04,9.27.44,19,2.89,28.36,3.13l.09,3.38c-34.44,13.65-65.11,34.74-93.99,57.52,40.1-8.78,79.86-5.26,117.5,11.01,19.55,8.46,40.73,21.34,57.41,34.58,1.57,1.25,5.69,4.14,6.07,5.93.46,2.2-5.02,1.9-6.48,1.92-17.09.26-34.55-1.26-51.5-1.44-.87-.28-.86-.62,0-1,1.15-1.32,4.18-1.45,6-1l1.91-1.43c9.32-.59,18.68-.45,28.09.43,1.33.06,2.68-.1,4,0,1.15-1.91,3.23-2.22,6.25-.93-3.14-1.3-4.56-2.99-4.25-5.07-.95-.64-2.18-1.39-3-2-1.23-.19-2.51-.93-3-2-.6-.75-1.31-1.34-2-2l-1-1c-3.06-.72-2.74-.91-5-2-.94-1.29-2.27-2.29-4-3-.33-.33-.68-.66-1-1l-1-1c-.3-.07-.67.06-1,0-3.82-2.18-7.8-4.26-11.94-6.25l-1.06-1.75c-13.85-7.09-39.99-18.91-55.75-19.76-5.65-.31-3.82.34-9.01-1.16-7.23-2.1-30.99-1.45-39.74-1.06-1.37.06-9.11.75-9.46,1.08s.06,2.16-.06,2.92c-3.34-3.06-19.52,2.12-20.99.99-1.81-1.39,1.6-2.09,1.94-2.74,4.21-8.06,13.42-13.99,21.14-19.67,11.73-8.63,25.17-17.78,37.62-24.36,4.32-2.29,23.43-10.75,25.28-12.74.88-.94,1.65-2.82,1.02-3.48-1.58-1.67-30.72-2.31-34.54-2.04-11.09.78-25.09,5.32-33.86,6.03-.77.06-.49,1.97-1.18,2.03-12.92,1.13-26.87,6.47-39.41,11.49-4.96,1.98-8.86,6.49-15.01,5.49-1.7-6.25,2.44-8.3,4.66-12.35,11.46-20.89,27.6-51.46,33.9-74.68.52-1.92-.46-4.49.43-6.18,1.54-2.93,3.2-2.85,4.68-8.46,2.62-9.95,6.92-22.32,10.33-33.34-.61-1.56-.68-3.27-.29-4.91l6.29-24.09c.32-1.01.69-1.89,1-3-.28-3.41.64-6.9,2-10,.05-.33-.05-.67,0-1,8.71-41.81,12.4-87.24,12.57-129.93l1.43-1.07c-.18-.46-.18-1.13,0-2-.96-.23-1.26-.67-1.28-1.43-1.21-45.55-2.64-93.5-12.72-138.57-.14-.95.14-2.05,0-3l-1-1Z"/>
  <path class="st14" d="M612,126l1,16c.35,6.21,1.05,14.62,3.13,20.42.54,1.51.78,3.06,2.87,2.58,1.35,1.25-1.36,1.28-1.23,1.26,7.67-1.26,8.4-.37,9.23,7.74,2.42,2.94.55,10.65-3,12-2.88,9.23-16.42,15.68-25,10-2.77,3.21-8.28-.93-10.81-3.39-3.45-3.37-5.54-8.97-5.19-13.61-.65-.31-.98-.98-1-2-2.89-.04-3.27-1.23-1-3-2.16-1.19-2.82-2.19-2-3-.49-1.69.91-3.9.8-5.5-1.03-15.62-1.47-37.35,2.66-52.54,4.06-14.92,21.46-11.82,27.74.34,2.32,4.49,1.61,8,1.8,12.7Z"/>
  <path class="st9" d="M1128,453c.07-1.48-.98-4.51,1.49-3.99,2.14,1.27,2.88,8.06,3.76,8.81.63.54,2.47-.03,2.71.21.6.61-.88,4.23-.51,6s5.93,12.05,7.26,14.73c.63,1.27,2.04,1.28,2.09,1.4.15.38-.8,2.04-.38,3.84.67,2.9,3.21,3.76,3.7,5.51.72,2.57-.47,5.29.28,7.53,1.04,3.09,3.99,1.98,4.5,8.58.36,4.67-.38,6.05,1.18,11.63,1.19,4.26,1.7,9.09,3,14.01.24.91,1.98.47,2.04,2.21.13,3.48-3.5,8.47.94,10.17-.2,2.3-2.64,15.8-2.04,16.37.17.16,3.09.18,3.79-.21.58-.32,6.51-9.63,7.37-11.11,14.56-24.93,16.15-54.09,15.91-82.17-.23-28.33-18.84-64.89-37.57-85.51-6.88-7.58-34.18-30.49-42.85-34.26-8.42-3.66-19.38-7.65-28.87-11.81-1.15-.5-1.74-2.64-4.76-3.43-5.56-1.46-8.25-2.03-13.02-3.99-1.53-.63-6.74-2.26-7.01-2.51-1.97-1.79,1.89-1.93,2.01-2.5.55-2.66-2.28-.48-2-2.48,14.53-.2,29.86-.48,44.37,1.12,16.36,1.8,31.81,7.53,47.63,10.86l-2-2.5,2-2.49c.17.21,3.33,1.71,4.36,3.09,1.2,1.61,4.3,5.47,1.16,5.91-6.05.84-27.98-7.21-36.29-8.73-10.55-1.93-22.52-3.18-33.23-4.27l-20-1c-2.04.1-4.69-1.06-4,1.99,13.63,2.75,27.83,8.96,40.35,15.16,49.49,24.5,89.91,70.37,92.65,127.85.8,9.29.8,18.63,0,28-3.34,22.04-7.49,45.18-21.57,63.93-.8,1.07-7.4,8.27-8.43,7.06-1.63-27.07-6.78-54.02-15.99-79.51-3.16-8.76-7.3-16.59-10.02-25.48-.58-.68-1.18-1.26-2.16-1.29.16-2.81-.81-4.75-1.84-6.71Z"/>
  <path class="st9" d="M160,2c9.53-1.28,19.4-.9,29,0,40.73,1.39,81.89,20.9,109,51,1.98,1.7,3.89,3.58,5,6,1.67,1.98,2.38,2.66,4,5,1.25,1.39.71,1.93-1,1l-2.34.22c-1.44-3.1-3.53-4.8-6.28-5.1-25.07-32.65-67.41-48.65-107.89-53.54C136.12.14,81.35,27.56,51.2,71.12c7.56-2.06,15.09-4.18,22.6-6.36l2.21,1.24c21.63-3.43,44.74-3.08,66,1,1.31-1.27,3.23-1.28,5.76-.02,6.35-7,10.56,8.67,3.48,9.22l1.52,2c33.44,10.16,65.51,25.83,94.26,45.88,5.36,2.28,9.69,5.25,12.98,8.92,2.08-.19,1.62,1.59,1,3-.43.45-.54,1.69-1.61,1.87l-2.1-.61c-25.54-20.3-54.2-34.51-84.31-46.74-5.37-2.18-29.82-8.78-30.74-14.13-.28-1.62,1.81-3.41-.23-4.89-1.02-.74-9.89-2.18-12.02-2.49-5.69-.1-11.36-.43-17-1-5.95-.13-12.05-.16-18,0-4.63.58-9.3.91-14,1-7.88,1.33-17.43,3.36-25.23,5.27-4.48,1.09-8.96,4.28-13.77,3.72-1.63-1.45,15.44-22.69,17.48-25.01C84.72,24.42,121.35,4.07,160,2Z"/>
  <path class="st9" d="M263,844c.01.11,1.47.64,1,1.99-1.28.97-19.52-5.08-22.79-5.7-7.52-1.42-13.5-1.67-20.2-3.3-29.61-3.13-59.2-.2-87.05,10.63-3.15,1.22-13.16,5.13-15.14,6.57-1.64,1.19-2.08,2.22-.8,3.8,9.84,2.45,15.04,1.15,24.77,3.92,7.75,2.21,12.2,1.34,20.02,3.99,11.86,4.02,37,6.87,45.42,13.15.6.45,3.71,2.95,2.79,3.92-5.16.1-10.5,3.07-15,4.01l-.41.82c-6.31.53-12.51,1.59-18.59,3.18-.33.04-.67-.04-1,0-6.13,1.29-12.13,2.96-18,5-.31.08-.69-.08-1,0-2.63,1.68-5.63,3.01-9,4-1.17.32-2.41.84-3,1-.58,1.49,1.09,2.16,5,2,1.33-.07,2.68.08,4,0,29.85-2.85,60.56-2.65,90.69-2.09,1.44.03,2.88.49,4.31,1.09,2.66.32,2.54,1.24,0,2-28.32.84-55.98,1.51-83,2-12.11.06-23.97,1.33-35.99,0-.28-1.32.14-1.68.95-2.54,2.27-2.4,22.82-10.22,27.27-11.73,10.15-3.43,20.35-5.48,30.77-7.73l3-1c.9-.18,2.09.17,3,0l1-1,10.99-1.99c-17.23-2.67-33.9-9.02-50.94-12.56-16.79-3.49-34.09-5.02-51.05-7.45-.38-1.86.92-2.43,2.07-3.42,2.19-1.88,9.65-5.88,12.6-7.4,35.9-18.44,74.43-20.83,113.55-13.91,10.11,1.79,20.62,3.99,29.77,8.73Z"/>
  <path class="st2" d="M595,92c-4.49,3.37-11.31,5.24-14.98.26-9.23.23-10.53-11.13-10.02-18.26,2.43-13.03,17.33-35.28,31.96-23.46,9.69,7.82,1.17,34.04-6.96,41.46Z"/>
  <path class="st9" d="M269,151c2.14.05,2.06,1.45,0,2-.28.87-.62.86-1,0-14.22-10.26-29.03-15.39-44.59-19.92-14.08-4.1-31.29-8.12-46.87-9.12-13.48-.87-26.32,1.53-37.87,2.42-4.88.38-5.94,2.62-6.31,2.67-4.59.54-7.95-.99-14.57,1.05-5.69,1.75-11.3,3.37-17.06,5.14-32.68,10.01-66.56,38.3-82.25,68.75-1.6,3.1-5.21,9.26-5.84,12.25-.52,2.48.6,4,.42,5.1-.15.91-2.02.94-2.46,1.73-3.29,5.88-6.71,30.23-6.7,37.44.01,8.93,3.66,19.76,1.09,28.5-2.54-5.19-2.71-9.44-3-15-.97-8.58-1.24-17.5,0-26,2.39-45.58,40.54-90.12,80.64-108.86,42.51-19.86,87.96-22.84,133.37-11.66,18.67,4.6,37.65,11.82,52.99,23.51Z"/>
  <path class="st4" d="M940,171c7.49-3.33,4.31,9.98,2,14-.28.36-.7.64-1,1l-3,5c-1.06,1.09-6.65,6.02-7.8,6.67-13.7,7.75-20.06-5.43-31.74-5.7-6.32-.15-13.87,5.47-9.46,12.03,1.33,1.41.77,1.92-1,1-.31-.28-2.02-.31-3.04-1.41-2.79-2.99-4.04-5.69-1.96-9.58-8.08-1.02-14.87,1.56-22.26,4.22-6.78,2.44-31.66,13.67-34.28,19.81-.52,1.23.67,2.85.56,2.95-.59.54-3.93-1.31-3.01,2,8.04-.38,14.78-1.12,22.38,2.16.91.39,1.35,1.71,1.61,1.85,2.62.79,2.6,1.1,0,2l-.82,1.03c-7.13-3.22-15.02-3.99-23.67-2.31-7.84.8-7.49-2.62-3.51-7.72-.29-.96.04-1.29,1-1l1-2c-1.09-.84,3.75-4.85,5.35-5.93.5-.34,1.11-.27,1.65-.07-1.36-1.43-.71-2.06,1-1,3.51-2.68,15.25-8.85,19.64-10.86,16.77-7.66,35.98-11.13,54.35-11.15.66-2.78-1.51-1.67-2.99-2.99-1.73-2.4-1.66-3.37.19-2.92,8.02,5.35,18.07,3.41,26.81.92.33-.04.67.03,1,0l5-3c.35-.29.71-.65,1-1l3-7c.08-.08,1.41-.65,2-1Z"/>
  <path class="st3" d="M391,148c14.08.72,28.42,2.06,43,4,.33.03.67-.03,1,0l15,3c.32.06.68-.06,1,0l10,3c.65.07,1.34-.04,2,0,.56-2.33,1.16-2.78,2.77-1.09,1.82,16.79,6.11,34.98,18.23,47.09,2.87,1.94,6.12,3.45,9.61,3.89,17.66,2.18,25.86-4.08,41.39-7.89,2.42.15,2.68,1.23,1,3,1.93,1.23,3.26,3.23,4,6,1.59,2.08,1.92,3.75,1,5,.75,2.6-.14,2.95-2,1-.33.89-.66.89-1,0-2.51-2.54-4.9-5.54-7.18-8.99-22.76,12.64-53.06,13.38-60.82-17.01l-2.85-1.38c-3.4-7.73-5.43-16.06-5.51-24.34-1.29-2.07-14.47-4.72-17.16-5.19-7.37-1.31-50.3-8.72-52.68-5.18.02,4.94-1.25,8.64-3.8,11.1-9.89,36.85-46.63,60.52-84.2,47.34-14.02-4.92-28.01-18.8-30.8-33.34.14-1.63-.02-3.35,0-5l1.39.07c.78,3.91,2.32,7.22,4.61,9.93.12.28-.13.73,0,1,18.11,31.6,64.27,31.9,88,7,.31-.35.7-.63,1-1,5.78-8.03,10.78-16.36,15-25,.09-.31-.09-.69,0-1,1.13-3.78,2.46-7.45,4-11,.69-2.5.77-5.94,3-7,.32.81-.06,1.11,1,2Z"/>
  <path class="st9" d="M889,207l1.83.23c6.88,7.51,17.33,17.13,27.04,19.8,14.74,4.06,35.27.35,45.05-11.97,1.58-1.68,2.78-2.33,4.08-.07,1.86.04,2.38.72,3.46,2.04,9.8,11.97,23.27,35.05,26.54,49.96.42.15,1.45-.33,1.87.1.74.76.86,5.46,1.13,6.9-3.78.55-2.51-4.75-3-7-.52-.18-1.68.49-2.08-.62-6.05-17.47-16.17-32.88-27.42-47.38-1.3,4.83-9.58,12.66-14.12,14.87-13.79,6.69-34.87,4.84-47.68-2.82-.87-.52-1.12-2.22-2.28-2.92-3-1.81-10.05-4.86-12.4-7.65-2.08-2.46-1.99-10.21-2.01-13.49Z"/>
  <path class="st4" d="M361,80c11.25,5.78,17.77,8.19,24.85,19.65,1.95,3.16,4.36,11.38,6.06,13.75.62.87,2.82.85,3.08.6.67-.65-.9-10.73-.57-13.32.72-5.53,2.99-8.41,6.03-12.75s7.75-8.11,11.21-12.27c1.69-2.02,3.36-6.34,5.8-8.7s17.25-11.39,20.07-11.92c1.88-.35,14.26-.46,15.75-.06.38.1,5.57,6.01,2.71,7.02-1.83.4-3.69-.33-5.58-2.21-19.25-8.7-62.8,36.24-48.51,58.32l-.91,2.9c-.31.43-.64.42-1,0,.15,2.53-1.59,2.47-3.36.86-2.23,5.66-1.61,7.39,1.86,5.21,3.33,1.79,3.98,1.67,7.5.92.89-1.43,2.51-1.6,4.87-.52l3.13-.48c.4-2.62,1.11-2.46,2,0,13.49-3.55,24.06-13.08,31.71-28.61l4.29-4.39c.17-3.09,3.95-5.44,3-1-2.66,8.53-3.08,13.62-8.36,22.14-5.55,8.96-14.75,16.18-25.4,17.6-6.89.92-16.11-.96-22.28.71-6.83,1.86-6.42,5.95-8.96,11.55-2.9-18.03,3.86-30.42-9.18-48.32-8.59-11.79-15.9-12.35-28.82-15.68.53-2.02,3.1-2.91,4-4,.89,1.63,2.56,2.63,5,3Z"/>
  <path class="st3" d="M1016,902c.67,0,1.33,0,2,0,11.46-1.13,23-1.4,34.61-.79,23.09-.33,46.17-.62,69.26-.79,5.31-.04,9.74.04,14.24.39.5.04.41,1.34-.11,2.2-.69.03-3.95,2.04-6,1-94.99.57-190.02,1.03-285,0-4.57.03-9.08.98-13,1-3.82-1.24-8.96-1.91-15.4-1.99l-.6-1.01c.21-.38.93-.75,1-1l.8-1.08c61.75.95,124.82,1.19,189.23.71l8.97,1.37Z"/>
  <path class="st9" d="M559,88c.89,2.81-.27,3.29-2,1-3.99-9.85-9.73-21.6-16.97-29.53-2.89-3.16-21.22-19.86-24.06-20.93-5.31-2-8.46-3.3-13.63-5.89-40.18-20.11-101.88,1.25-133.86,33.32-2.74,2.75-5.9,11.59-10.48,9.02-.27-1.33,1-2.29,2-3,1.85-2.38,2.96-3.12,5-5l4-3c29.49-32.92,84.51-52.09,127.51-38.01,26.34,8.63,55.26,34.74,62.49,62.01Z"/>
  <path class="st9" d="M816,902c3.42.1,8.27.87,12.54,1,1.93.06,4.01-1.02,3.46,2-8.02.05-15.94-1.68-23.99-.99l14.99,2.99c1.62.69,3.39.81,5,0,13.41,1.19,33.85,5.26,47.37,8.13,31.65,6.7,61.85,19.03,92.14,29.86,4.65,3.43-4.73,2.95-6.51,3.01-26.89,1.25-54.17,1.5-81,0,22.89-1.26,46.22-1.92,70-2,.47-1.31.47-2.64,0-4-10.83-4.52-19.85-7.64-29.38-11.15-31.55-11.62-67.14-14.7-99.85-21.12-6.28-1.23-12.19-4.65-18.77-3.73.85-5.16,9.9-4.11,13.99-3.99Z"/>
  <path class="st0" d="M353,948c.83-1.62,6.01-1.57,7,0h49c.03-1.83,4.57-1.72,5,0,4.25-.88,8.74-.86,13,0,134.66-1.51,269.33-1.51,404,0,.26-.46.6-.42,1,0,15.98-1.03,32.02-1.1,48,0,26.69-.03,54.45,1,81,0-1.04,1.66-3.79,1-5.49,1.02-203.32,2.52-406.8-1.99-610.13.06-1.33.56-2.85-.99-3.38-1.07,1.92-1.67,8.88-1.59,11,0Z"/>
  <path class="st10" d="M830,210c-.26.2-.55.65-1,1-2.82,1.21-5.66,3.09-8.53,5.63-8.71-4.79-17.55-9.35-26.52-13.67l-3.59,1.42c-7.04,6.55-11.83,7.76-14.37,3.62-.77-.72-1-1.55-.63-2.52l8.63-6.48c.38-.77,1.04-1.44,2-2-.88-.19-.85-.53,0-1,1.11-1.6,2.44-2.94,4-4-2.23-2.54-.47-6.39,2-8h1c13.48,7.02,24.61,17.39,37,26Z"/>
  <path class="st9" d="M485,906c.33-.87.67-.87,1,0,.28,4.04.19,2.49-2.48,2.97-19.46,3.55-39.54,5.75-57.86,10.03-9.93,2.32-23.34,5.89-34.11,9.05-10.98,3.23-26,7.46-36.33,11.64-1.66.67-1.11,2.24-1.23,2.3l-.13,1.23c-2.95-.01-4.11,1.22-.87,2.77,2.66.32,2.54,1.24,0,2h-11c-1.51-.25-3.4.18-5,0-.25-2.69,2.68-3.83,4.62-4.87,34.48-18.57,104.26-34.42,143.38-37.12Z"/>
  <path class="st3" d="M478,901c1.42,0,3.34,1.04,5.45,1.04,3.42,0,7.48-3.59,6.55,1.96-.29,1.54-1.2,1.4-2,0-.4-.46-.73-.46-1,0-.6,1.44-1.4,1.44-2,0-.33,0-.67,0-1,0-1.58-.8-3.41-.79-5,0-.33,0-.67,0-1,0-6.98.82-14.02.85-21,0-.67,0-1.33,0-2,0-68.64.9-137.38,1.42-206,0v-2c9.54-.52,19.07-.94,28.61-1.03,66.78-.65,133.65-1.11,200.39.03Z"/>
  <path class="st2" d="M791,183c6.42-11.63,11.25-26.4,19.14-37.35,1.28-1.77,4.48-3.63,5.82-5.41,4.12-5.45,7.93-11.25,12.09-16.68,3.34-1.87,6.44-1.89,9.94-.54.43,1.66-1.74.41-2.01,1.63-.3,1.34.2,3.13-.1,4.72-2.83,15.07-7.35,30.52-4.79,45.86,3.34,2.83,4.96,12.07,10.27,11.75,1.29-.08,2.8-1.19,4.05-1.04.83.1.06,2.31,1.98,1.99,7.45-1.23,14.63-26.87,15.09-33.95l4.52-10.98c-1.24,9.61-8.28,37.12-14.97,43.53-3.44,3.3-8.34,4.83-13,2.93-1.52-.62-7.91-5.5-8.88-7.11-5.2-8.63-2.44-21.24-.86-30.56,1.11-6.54,5.47-19.83,4.72-25.3-.14-1.01.27-2.16-1.49-1.48-3.57,1.4-18.2,18.94-20.95,23.05-2.96,4.43-18.57,31.44-19.57,34.93-.28.87-.62.86-1,0Z"/>
  <path class="st9" d="M79,220c5.81-7.58,1.21,11.25,1.01,14.51-.18,2.93-1.21,12.61,2.49,12.53,6.56-5.11,13.81-9.5,20.06-14.99,4.74-4.16,10.44-10.38,14.95-15.04,1.79-1.85,11-15.26,14.49-12.01.91.85-.93,2.73-.99,2.99-1.98-.03-2.77,1.36-4.01,2.48-7.44,6.71-14.18,15.99-21.97,23.03-8.62,7.78-18.34,14.4-27.53,21.47-2.23.33-1.16-.35-1.45-1.49-1.79-6.93,1.39-25.78,2.97-33.5Z"/>
  <path class="st9" d="M6,290c2.41.59,3.3-.5,5.03-1.46,9.45-5.25,36.69-34,42.64-43.36,1.14-1.79,1.11-4.43,1.56-4.95.35-.41,2.23-.31,3.66-1.81,1.93-2.03,1.75-5.53,2.33-6.19.88-1.01,4.76-3.28,7.18-6.31,3.32-4.16,7.42-10.24,9.6-14.91,1.69-.29.65,1.48,1.33,2.68.25.43,1.65.28,1.69.83.1,1.4-1.01,1.4-1.03,1.49-2.22-.49-2.12,1.22-2.98,2.47-15.73,22.77-37.94,52.3-59.49,69.56-2.33,1.87-7.87,6.31-10.61,4.52-.94-.61-.64-2.12-.92-2.55Z"/>
  <path class="st0" d="M249,904c68.62-.61,137.38-.18,206,0-1.04,1.66-3.79,1-5.49,1.02-94.49,1.17-189.07.55-283.51.98,1.04-1.66,3.79-1,5.49-1.02,25.81-.27,51.88-.76,77.51-.98Z"/>
  <path class="st0" d="M1130,904v1c-93.14-1-186.37.99-279.51.02-1.69-.02-4.45.64-5.49-1.02,94.98-.55,190.02.41,285,0Z"/>
  <path class="st9" d="M193,202c2.19-.04,3.86.29,5,1-17.64,4.01-34.7,9.16-51.39,16.11-4.43,1.84-13.27,7.48-17.16,7.86-2.22.22-1.11-.19-1.5-1.48-1.36-4.48,1.96-10.79,3.05-15.49,7.26-1.17.14,10.17,1.01,10.99,9.69-.53,17.58-6.45,26.31-10.18,10.54-4.51,22.41-6.67,34.69-8.82Z"/>
  <path class="st10" d="M497,164c-8.45-17.37-4.8-40.48-6.01-59.49-.54-8.51-2.51-16.99-3-25.51-4.94,2.8-1.69-2.61-5.68-3.81-7.94-2.38-9.85,1.27-12.01,7.61-10.04,29.5-7.06,89.76,9.68,116.48.92,1.46,5,.42,4.02,4.72-8.96-6.04-15.54-23.41-17.73-33.77-.51-2.43-.92-11.74-1.27-12.23-.16-.23-1.78.23-2,0-.08-.08.82-1.03.68-2.26-2.34-19.85-1.82-54.86,5.02-73.54,2.49-6.79,10.51-16.68,17.31-8.71,9.02,10.55,6.15,49.39,7,64,.51,8.84,2.34,17.84,3.99,26.51Z"/>
  <path class="st4" d="M307,64c1.67,2.41,5.5,5.12,3.54,9-.36.71-9.53,7.49-11.56,9.47-4.63,4.51-31.63,33.73-32.91,37.29-1.8,5.02-.91,11.86-5.07,16.24-.43-.84-1.09-2.09-1-3-3.61-5.32,1.53-14.95,4.89-20.1,11.81-12.98,23.79-25.87,35.94-38.67l6.02-3.6c-1.44-2.3-1.72-4.18-.85-5.62l1-1Z"/>
  <path class="st3" d="M891,205c4.24,6.63,10.27,10.43,17,14,.28.38.78.66,1,1,2.42,3.24,6.76,4.04,10.65,4.51,15.71,1.86,30.37,1.26,42.35-10.51.3-.35.68-.66,1-1l1-1c.57-.35,1.7-.67,2-1l1,4c-3.9-.08-4.57,3.73-6.96,5.54-12.87,9.74-35.85,14.07-49.92,4.84-7.88-5.17-15.02-12.21-21.12-18.38-.69-.7-.84-1.86-1-2l1-1c.22.32,1.53.57,2,1Z"/>
  <path class="st2" d="M888,149c-.04-1.15-.76-5.1.99-5,.41,9.58,5.67,40.17,18.52,39.94,1.74-.03,3.02-1.68,4.16-1.78,1.25-.1,2.21,1.61,3.79,1.7,2.76.16,9.63-.56,12.54-.87-3.54,1.48-11.16,4.63-14.68,4.69-2.8.05-7.3-2.39-10.03-3.49-1.72-.69-2.54-2.62-2.3.8-7.92-7.09-12.62-25.63-13-36Z"/>
  <path class="st3" d="M250,198v1h-2l-22,1c-9.41,1.05-18.45,3.27-28,3-1.77-.05-3.54.45-5-1,15.28-2.68,42.84-7.83,57-4Z"/>
  <path class="st5" d="M595,92c-1.97,1.79-1.82,3.32-5.56,3.94-14.21,2.36-20.54-3.44-20.54-17.48,0-2.5.87-3.21,1.1-4.46.26,3.57,3.04,13.79,6.02,15.48,1.42.8,3.39.33,4.95,1.05s2,3.06,4.58,3.49c3.38.55,6.3-1.48,9.45-2.02Z"/>
  <path class="st2" d="M620,113l-1.03,7.45c.54,5.46,2.85,9.74,6.03,14.05,1.17,1.58,3.56,2.12,3.97,3.26,2.29,6.32.42,18.37,2.03,25.23.08,1.42-.95,2.01-3.08,1.79,1.43,3.2,1.45,5.61.08,7.21,1.73,1.2,1.03,2.61-1,2-1.99-6.28-2.79-7.6-10-7.01-.26-.93,1.34-1.68,2-1.99,1.9-.89,4.36-.46,6.44-3.06s2.31-20.97,1.35-24.23c-.68-2.33-4.11-3.37-5.65-5.35-4.93-6.34-5.31-12.82-1.14-19.36Z"/>
  <path class="st12" d="M284,111c-7.03,14.73-12.78,27.38-11.7,44.21.11,1.71,2.16,3.2-1.3,2.79-2.1-.24-2.63-3.19-2-5-.1-.46-.07-1.48,0-2,1.01-7.1,3.79-17.38,6.25-24.25,1.86-5.19,4.41-12.35,8.75-15.75Z"/>
  <path class="st6" d="M459,70l1,3c.09.64-.06,1.35,0,2,.77,1.01,1.44,2.01,2,3-1.3,2.98-1.41,4.06-2.5,7.01-1.15,3.11-3.92,6.12-4.5,7.99-1.91-1.97-1.84-.59-3,1-.31.41-.65.4-1,0l-.57-2.99c3.62-6.32,5.39-13.48,5.53-20.74l2.03-2.26c.28-.87.62-.86,1,0,.16.52-.12,1.38,0,2Z"/>
  <path class="st12" d="M581,174c-3.65,2.84-7.31,6.08-10.97,9.71-1.06-.29-2.08-.22-3.03.29-.23,2-1.23,1.92-2,0,.23-1.46-.39-7.55,1-8,.15-.05,1.08.94,1.5.72,3.58-1.85,7.04-4.79,11.5-5.72.05.17,1.24.9,2,3Z"/>
  <path class="st6" d="M434,152c-10.62-.87-20.95-1.82-31.51-2.99-3.55-.39-9,1.07-11.49-1.01,14.32-.15,28.98,1.1,43,4Z"/>
  <path class="st2" d="M869,134l2-34c2.37,9.71,1.68,24.51-2,34Z"/>
  <path class="st2" d="M883,110c3.18-.56,1.76,1.6,1.97,3.49,1.02,9.43,2.27,19.49,2.03,28.51-2.43-10.45-3.25-21.31-4-32Z"/>
  <path class="st0" d="M189,2c-9.15-.31-19.91-.49-29,0,1.04-1.66,3.79-1,5.49-1.02,7.56-.08,16.29-.74,23.51,1.02Z"/>
  <path class="st0" d="M1188,495c-.32-9.29.44-18.72,0-28,1.66,1.04,1,3.8,1.02,5.49.1,7.76.12,14.99-1.02,22.51Z"/>
  <path class="st0" d="M2,274c-1.77-6.17-1.09-13.97-1.02-20.51.02-1.69-.64-4.45,1.02-5.49-.42,8-.42,18,0,26Z"/>
  <path class="st0" d="M1128,453c3.67-.35,3.24,5.5,4,8l-1.99-1c-.05,1.33.03,2.67-.01,4-.56-.93-1.86-3.16-2-4-.1-.62.06-1.35,0-2-1.69-.65-1.67-3.32,0-4,0-.33-.02-.67,0-1Z"/>
  <path class="st9" d="M248,199c-6.76,2.29-14.91.4-22,1,7.56-.84,14.15-1,22-1Z"/>
  <path class="st4" d="M559,88c.37,1.38,1.79,2.82,1,5-2.86.8-4.95-.53-7-1,4.18-.99,2.98-1.69,4-3,.15-.19,1.64-.32,2-1Z"/>
  <path class="st0" d="M1044,563c.26-7.05.66-14.28,1-21-.6,6.75,1.28,14.59-1,21Z"/>
  <path class="st0" d="M478,904c-6.09,1.67-14.91,1.67-21,0,6.99.02,14.02-.06,21,0Z"/>
  <path class="st0" d="M1079,323c-6.41-.6-13.94,1.28-20-1,6.96-.33,13.41.33,20,1Z"/>
  <path class="st0" d="M487,904c.26-.46.6-.42,1,0,.66.03,1.34-.05,2,0,2.49.2,4.66-1.07,3.99,1.99-2.65.12-5.35-.14-7.99,0-.33.02-.67-.02-1,0v-2c.67.01,1.33-.02,2,0Z"/>
  <path class="st0" d="M130,69c-5.43-.57-12.14,1.26-17-1,6.36.13,10.8.08,17,1Z"/>
  <path class="st0" d="M613,142c-2-4.53-.79-10.85-1-16,2.06,4.54.71,10.84,1,16Z"/>
  <path class="st0" d="M1045,461c-.33-4.78-.98-9.83-1-15,2.25,4.17.45,10.24,1,15Z"/>
  <path class="st0" d="M95,68c-3.82,2.24-9.58.46-14,1,5.28-.89,8.58-.85,14-1Z"/>
  <path class="st0" d="M1043,435c-1.96-2.7-.82-7.48-1-11,1.85,2.65.97,7.53,1,11Z"/>
  <path class="st6" d="M450,155c-4.83-.82-10.41-1.02-15-3,4.9.43,10.54.48,15,3Z"/>
  <path class="st2" d="M869,135c-.27,2.3-.42,5.18-2,7,.29-2.96-1.39-7.89,2-7Z"/>
  <path class="st6" d="M303,59c-1.46-1.73-3.81-4.68-5-6,2.2,1.45,4.6,3.22,5,6Z"/>
  <path class="st6" d="M461,158c-3.13-.32-7.91-.74-10-3,3.29.57,7.27.88,10,3Z"/>
  <path class="st4" d="M460,75c2.29-.23,2.13-.13,2,2-.02.35.09.79,0,1-2.96.47-1.79-.76-2-3Z"/>
  <path class="st6" d="M369,64c-1.16,1.29-1.52,3.11-4,3,1.1-1.01,1.48-3.23,4-3Z"/>
  <path class="st0" d="M1044,442c-1.68-1.09-.98-4.11-1-6,1.68,1.09.97,4.11,1,6Z"/>
  <path class="st5" d="M488,66c-.25-.08-4.74-.97-5-1,1.72-.04,3.79-.51,5,1Z"/>
  <path class="st15" d="M484,904c-1.67-.03-3.33.02-5,0,.66-1.58,4.34-1.58,5,0Z"/>
  <path class="st15" d="M828,907c-.9,1.75-3.87,1.35-5,0,1.65.1,3.36-.15,5,0Z"/>
  <path class="st5" d="M482,65c-1.09-.06-3.11-.21-4,0,.87-1.38,3.45-1.64,4,0Z"/>
  <path class="st5" d="M686,161c.01-1.35-.44-2.31.99-1.99,1.66,4.66.68,2.19-.99,2.99v-1Z"/>
  <path class="st6" d="M466,73c-.58.53-1.39,1.39-2,2-.12-1.39.73-3.53,2-2Z"/>
  <path class="st15" d="M192,883l-3,1c.33-.07,1.51-.7,3-1Z"/>
  <path class="st15" d="M245,203l-3,1c.99-.32,1.99-.67,3-1Z"/>
  <path class="st6" d="M358,75c-.4.61-1.08,1.04-1,2-.27.84-.6.82-1,0,.86-1.04,1.18-4.37,4-5-.72.93-1.35,2.01-2,3Z"/>
  <path class="st11" d="M793,184h-1c-.86-.27-.85-.6,0-1l1,1Z"/>
  <path class="st15" d="M195,883c.07-.01.2-.86,1-1l-1,1Z"/>
  <path class="st6" d="M1120,255c21.67-3.61,48.79-5.29,72.02,1.53,1.65.49,3.55-.2,2.98,2.47-29.17-5.84-42.69-4.61-71.55-2.01-1.88.17-4.03.9-3.45-1.99Z"/>
  <path class="st6" d="M1282,368c-3.04.56-1.91-1.53-2.01-3.45-.7-14.06-5.4-31.49-8.99-45.55,7.83,15.35,9.89,32.09,11,49Z"/>
  <path class="st6" d="M1149,165c-19.2-1.69-39.03-1.72-58,2,9.87-4.89,21.74-3.86,32.49-4.01,6.37-.08,12.16-.49,18.88.13,1.92.18,5.1.65,6.63,1.87Z"/>
  <path class="st6" d="M1228,273c-6.68-1.74-11.87-7.22-18.94-7.56l-10.06-6.44c12.68,2.47,18.85,7.64,29,14Z"/>
  <path class="st6" d="M1161,167c-3.6-.45-8.42,1.33-11-2,3.46.31,6.83,1.09,10.32,1.21l.68.79Z"/>
  <path class="st6" d="M1238,279l-.49.98c-2.18-2.04-6.62-1.35-6.51-4.98,1.87,1.26,4.73,2.41,7,4Z"/>
  <path class="st6" d="M1165,167c-.17-.04-1,.28-3,0h3Z"/>
  <path class="st6" d="M1271,318c-.2-.8.02-.95,0-1v1Z"/>
  <path class="st15" d="M1029.5,285c.65.33.65.67,0,1v-1Z"/>
  <path class="st9" d="M1009,507c-1.54,15.44-3.48,30.89-5.24,46.19-.49,4.26-2.2,4.27-2.85,6.29-1.1,3.41.51,5.83.14,7.87-.23,1.26-.96-1.02-1.14,5.2-.03,1.07-2.91,6.64-3.47,9.41-4.63,23.08-15.31,53.88-25.33,78.84-20.07,49.99-48.41,95.45-84.15,135.63-4.86,5.46-8.64,10.94-15.45,14.55-.65-6.69-4.82-12.9-8.47-18.51-8.65-13.3-19.54-22.69-32.64-30.32s-26.29-11.05-41.38-14.15c-1.39,1.33,7.59,10.92,8.83,12.66,10.3,14.52,25.04,39.13,29.48,56.51s-13.92,1.63-18.81-1.19c-27.59-15.92-61.22-25.49-94.06-23.04-1.71.13-3.31-.11-4.44,1.56,6.65.83,6.55,3.07,10.43,6.11,14.11,11.04,44.11,34.47,52.05,50.4,1.95,3.91-.5,2.35-2.1,3.34-.41.26-.42,1.59-1.04,1.68-.59.08-10.46-.89-11.78-1.09-4.11-.64-6.96-1.6-11.78-2.18-24.53-3-49.79-10.06-76.32-9.8-2.87.03-5.62,1.25-7.99,1.16-1.82-.07-1.31-1.91-2.14-2.1-12.39-2.77-33.91-2.13-46.77-1.97-19.25.24-38.23-1.09-57.09-.09-5.95.32-12.91,1.17-18.85,2.02-4.05-2.37-2.67-10.09-.5-13.37,1.01-1.54,3.15-2.04,4.34-3.66,13.16-17.76,26.92-38.3,44.03-52.97,1.68-1.44,9.59-3.68,7.48-6.92-.1-.15-2.77-.87-3.42-.87-5.7-.02-23.02,3.95-29.33,5.53-25.99,6.52-59.96,25.99-81.72,42.28-4.34,3.25-24.62,23.29-29.49,19,11.1-25.87,23.85-51.08,41.02-73.47,3.37-4.39,8.26-10.99,11.93-14.8,1.57-1.63,6.19-2.6,7.04-6.72-7.17-.4-14.31,1.38-21.24,3.07-1.2.29-5.24,1.36-7.17,1.97-11.99,3.76-26.23,10.19-36.53,17.52-15.32,10.91-26.88,24.16-38.06,38.98-1.23.76-6.57-4.54-7.44-5.61-13.69-16.86-29.62-47.62-39.45-67.55-14.74-29.9-26.53-57.07-36.6-88.4-4.4-13.68-9.25-28.55-12.28-41.72-4.73-20.59-9.1-40.6-12.14-61.86-12.11-84.63-11.31-194.93,15.46-275.34.5-1.5.07-3.31.41-4.37.12-.36,5.06-2.7,5.57-2.71,2.38-.07,4.13,3.71.46,3.03-.18-.03-.67-1.16-1.38-.96-2.15.6-1.96,6.13-2.71,8.17-5.37,14.62-9,32.97-11.04,48.16-1.99,14.85-5.33,28.27-6.87,43.63,0,5.04-.34,10.04-1,15-.27,11.65-1.87,22.95-2,36v45c.04,3.66-.06,7.34,0,11,.67,6.64,1,13.31,1,20,1.14,16.36,2.82,30.48,4.9,46.6,10.19,78.94,38.86,161.73,80.3,232.7,7.27,12.45,15.47,24.31,22.82,36.69,1.4.3,1.27.19,2.06-.63,3.35-3.5,6.79-11.05,10.41-15.37,22.81-27.27,62.97-46.3,98.51-46.98.29,1.56-.15,2.32-.95,3.54-2.28,3.52-9.65,9.35-12.99,13.25-19.73,23.05-35.31,49.86-46.05,78.2l33.08-25.41c28.95-19.87,73.7-41.69,109.41-41.38.91,0,6.14.24,5.49,2.29-19.04,14.7-36.65,32.64-50.99,52.01-3.91,5.28-9.18,12.93-12.42,18.58-.6,1.05-3.31,5.26-2.58,5.91,9.15-.71,18.33-2.42,27.51-2.98,47.81-2.92,101.24,1.04,148.87,7.11,17.61,2.24,39.54,8.71,56.11,9.9.63.05,1.65.27,1.5-.51-8.8-10.81-17.59-21.66-27.98-31.02-9.66-8.7-21.11-17.1-32.34-23.66-1.68-.98-8.37-3.49-8.63-3.88-1.53-2.34,1.17-3.74,3.41-4,18.99-2.21,41.46-.5,59.98,4.13,22.37,5.59,41.39,16.65,60.56,28.93-7.15-27.56-23.27-54.17-41.97-75.51.06-1.08,6.21-2.69,7.34-2.54.67.09.55,1.85,1.3,2.03,2.1.49,4.96-.27,7.58.26,25.59,5.28,53.27,21.31,66.95,44.05,2.41,4,3.97,9.43,6,13,.53.93.93,1.98,2.28,1.68.73-.16,9.14-9.18,10.49-10.74,96.43-111.55,137.72-265.3,119.91-411.63-.51-4.22-4.6-33.42-5.89-34.62-.21-.2-2.18.13-2.99,0-.02,1.38.17,2.91-.24,4.24-5.61,18.04-36.12,77.26-48.78,90.25-.95.97-1.3,1.89-2.97,1.51-2.21-1.62-3.62-22.12-2.02-25.99l-3.96,3.71c-1.53,11.49-6.55,22.68-9.75,34.07-5.46,19.42-8.9,37.54-12.56,56.44-.91,4.7-1.92,9.3-3.78,13.72-1.06.29-1.99.06-2.94-.45-4.26-2.26-12.85-15.4-14.89-20.11-1.15-2.65-.61-5.39-2.61-7.37-2.16.03-2.87,12.29-3.53,14.27-.39,1.16-1.92.62-1.97.71-.28.87-.62.86-1,0,1.19-6.2-.72-18.47,8.04-18.52,2.47,1.68,1.68,4.76,2.74,7.24,1.66,3.89,8.94,17.33,11.94,19.31,6.17,4.07,3.2-4.22,3.25-5.46.02-.6,1.95-.49,2.09-1.2.33-1.67-1.06-4.07-.85-6.57.74-9.06,7.24-24.4,8.58-34.6.44-3.37-.88-6.65.3-10.43,3.45-11.02,8.8-24.82,13.45-37.73,1.61-4.47,4.16-12.62,9.47-12.02-.53,3.09,1.57,19.74,3.02,21,2.83,2.46,5.54-5.26,6.39-6.61,13.61-21.78,25.29-45.37,35.89-68.64,2.18-4.8,4.65-9.45,6.67-14.32,7.32-.63,7.4,10.83,8.78,16.35,3.62,14.44,5.32,34.19,6.27,50.23,3.98,29.87,2.01,60.52-.39,90.55l-1.61,4.45Z"/>
  <path class="st4" d="M364,216c1.82-3.86,3.44-4.13,7.86-3.29,40.77,7.73,91.49,34.29,121.42,63.19,23.56,22.75,36.95,49.19,42.36,81.44,20.49-42.16,19.99-93.7,2.68-138.22l.69-4.12c.57-.08,1.35-.8,2-1,1.63.79,2.68,2.04,3.34,3.68,12.61,31.21,17.18,75.73,8.94,108.46-3.89,15.45-11.43,35.22-21.26,47.39-.35.43-1.32,0-2.02-.53-.64.02-1.18-.03-1.33-.3-.54-.93-.18-19.42.02-21.55.02-.26.59-.46,1.31-.65l-1.35-1.08c-5.29-34.05-30.33-61.21-54.65-83.42-10.76-6.39-21.43-13.06-32-20l-2.08.65c-20.42-11.92-43.44-21.65-67.12-25.51,16.88,14.84,33.72,31.33,45.41,50.68.41.68.57,1.53.7,2.41s.14,1.84.09,2.77c3.04-.94,2.79,1.74,2,4,33.54,52.42,43.76,119.08,7.33,172.89-3.94,5.82-16.62,23.12-22.89,26.57-.3.17-.84-.09-1.44-.46-2.51,1.09-3.02-.12-1-2,2.04-28.62-.86-58.27-7.34-86.26-6.33,10.14-13.61,21.13-22.55,29.95l-2.1.3c-2.09-.39-2.54-1.51-1-3,7.57-5.93,13.01-14.23,18.39-22.11,2.75-4.03,4.18-12.73,11.14-8.92,3.18,18.37,7.48,37.86,8.51,56.49.45,8.17-.63,16.92-.04,25.06.08,1.08-.55,3.34,1.49,2.48.85-.36,10.65-12.26,11.95-14.06,47.15-65.31,21.95-156.29-28.92-211.94-5.03-5.5-24.85-24.18-30.51-26.99-2.69-1.7-.75-3.04,2-3Z"/>
  <path class="st9" d="M388,164l1.79,1.98c-1.4,20.97-13.7,34.46-29.3,47.18,1.66.38,2.88,1.18,3.51,2.85l-2,3c-1.41-.7-10.26-1.97-11.38-1.76-2.36.43-3.67,5.23-5.2,5.59-.81.19-5.34-1.02-7.89-.83-10.82.81-23.88,6.59-34.26,2.25-4.54-1.9-4.8-7.46-7.73-10.27-2.01-1.93-6.21-3-8.41-4.59-1.65-1.19-10.64-7.56-11.17-8.1s-4.73-9.4-4.76-9.95c-.12-1.84,3.83-5.51,2.83-9.67-.44-1.84-1.47,1.72-1.02-3.67,6.79,14.56,18.94,28.24,34.94,32.56,28.9,7.81,54.18-3.98,70.06-28.06,3.9-5.91,5.81-12.91,10-18.5Z"/>
  <path class="st6" d="M354,942l1.5,2.01-3.99,1c33.45-2.34,66.66.1,100.04.04,156.8-.3,314.91-.93,471.97-2.03l26.49-1.01c2.91,1.21,6.27,1.88,9.01,3.5-.02.9-7.5.48-9.01.5-192.55,1.92-385.17,1.52-577.74.93-6.42-.02-12.84-.42-19.26-.93h-10.99c2.9-.57,5.38-2.27,8.01-3.52,1.35-.64,3.51-.24,3.98-.48Z"/>
  <path class="st1" d="M948,328c.4.22,1.73-.24,2.01,0,.31.28-.9,1.47-1.01,1.99l-1.06,1.78c-63.52,29.1-109.77,98.99-102.15,168.97l1.68,2.17c3.69,21.87,13.6,39.29,25.25,57.59.89,1.39,1.51,2.76,1.28,4.48-.99.18-2.21.37-3,1-.73.09-1.53.04-2.07-.52-2.9-3.02-10.47-17.32-12.84-21.85-11.95-22.84-19.88-46.04-17.26-72.21,1.35-13.12,5.19-24.78,9.41-37.07.8-2.33,5.54-15.18,6.36-15.81.38-.29.88-.44,1.4-.55-.86-.32-.86-.65,0-1,.23-2.86,1.23-4.52,3-5,2.29-8.47,12.05-25.77,19.09-30.46.91-.61,1.9-1.09,2.91-1.54-.62-3.7,7.69-14.37,10.66-16.31l2.34.31.33-2.21c9.85-9.76,20.96-18.19,33.33-25.31-41.67,7.42-81.34,30.6-107.66,63.51-.54,3.25-4.56,3.27-5,0,.02-2.86,1.22-4.91,3.02-7,30.64-35.66,82.94-63.78,129.98-65Z"/>
  <path class="st4" d="M886,274c.71-3.11,7.53-.82,7.5,2,1.65-3.28,14.06-3.13,16,0,.06-.48.16-.94.4-1.32,2.19-3.59,35.51,9.27,36.93,12.78.19.46.2,1,.17,1.55,2.66.32,2.54,1.24,0,2-9.59-2.48-17.74-7.6-27.97-9.53-66.89-12.63-135.54,19.51-155.55,86.52-1.27,4.25-5.49,19.16-5.49,22.51v22.5c2.09-.81,2.02-3.28,3.45-5.05,9.72-11.99,23.83-27,34.52-38.48,7.09-7.61,20.79-22.72,28.52-28.46,3.38-2.51,2.79-1.04,4.5-1.01-.5,3.12-4.93,9.35-8.42,10.42-22.03,21.7-43.04,44.86-63.27,68-.37.18-3.84,1.36-4.02,1.22-1.17-.88.41-26.35.92-29.21,5.33-29.9,15.61-55.46,37.79-76.43,23.2-27.08,60.2-36.84,94-40Z"/>
  <path class="st4" d="M949,330c-.16.76.4,2.47-.1,2.88-.44.37-2.63.02-3.82.67-83.6,45.7-133.12,146.14-68.05,229.95,1.74,2.24-.35,4.44,4.96,3.5-.48-10.77-1.8-21.72-1.03-32.54.49-6.97,2.74-13.7,4.04-20.46h1c-.76,1.18.7,10.77.02,13.34-.29,1.07-2.02.55-2.02.66v44c-4.45.76-7.55-3.81-10-7-14.34-18.66-22.61-38.61-28.07-61.25-.2-.82-1.73-.73-1.9-1.44-1.06-4.46-.48-27.11-.01-32.79,3.72-44.86,35.82-93.3,71.07-119.93,10.26-7.75,21.68-15.45,33.91-19.59Z"/>
  <path class="st6" d="M154,903c-.56-3.03,1.53-1.92,3.45-2,64.23-2.54,128.81-.29,193.05-.56,41.08-.17,82.9-2.82,124.05-1.44,1.93.06,4.01-1.02,3.45,2-76.22.19-152.7.69-229,1-31.62.13-63.47-.93-95,1Z"/>
  <path class="st9" d="M320,255c3.39-1.13,4.7,4.1,6,7,3.53,5.85,6.88,12.35,8,19,.37.96.63,2.01,1,3,6.65,15.62,11.98,31.62,16,48,.08.99-.08,2.01,0,3l1,1c.3,1.49-.09,3.05.68,4.78s3.76,7.67,4.19,9.95c1.05,5.59,1.51,13.7,2.75,20.06,3.08,15.83,5.74,33.58,10.39,48.2.33,1.02.66,1.99,1,3,2.13-.14,2.05,1.52,0,2-.28.87-.62.86-1,0-.81-1.91-2.94-2.73-3.75-4.76-4.63-11.63-6.64-34.82-9.72-48.28-5.44-23.8-11.68-48.39-19.52-71.48-5-14.75-12.64-29.92-17.02-44.48Z"/>
  <path class="st4" d="M948,328c-51.55,5.6-101.47,30.53-133,72-.3.88-.64.88-1,0-1.43-3.71-1.03-8.37-.59-12.42,1.04-9.75,7.05-32.31,11.65-40.8,1.35-2.5,3.6-5.32,5.95-6.78,1.13.26,2.52-.78,1.91,1.39-.86,3.07-4.2,6.01-5.34,8.68-1.31,3.06-3.05,9.41-4.08,12.92-2.5,8.52-5.2,19.32-5,28,10.8-11.29,22.26-21.95,35.19-30.81,23.53-16.14,62.21-33.86,91.06-33.9,2.21,0,2.18,1.14,3.26,1.71Z"/>
  <path class="st6" d="M1043,506c.18.47.18,1.14,0,2-.66,6.82.42,14.57.04,21.54-1.69,31.34-4.68,64.77-10.33,95.67-.8,4.39-1.93,9.72-3.71,13.79,15.23-98.78,14.76-174.71,0-273,2.31,8.39,4.49,17.01,5.88,25.62,5.44,33.53,7.93,68.87,8.07,102.92.02,4.32,1.02,6.35.05,11.46Z"/>
  <path class="st6" d="M817,901c.13-.46-.32-1.52.11-1.86,1.55-1.23,34.45.49,39.56.48,35.54-.03,71.14-.81,106.87-.67,15.42.06,35.16-1.12,50.01.04,3.07.24,2.57-.49,2.45,3-59.75-.32-120.84.91-180.54.06-5.85-.08-12.29-2-18.46-1.06Z"/>
  <path class="st1" d="M886,274c.56,3.23-1.64,1.71-3.5,1.95-25.38,3.38-44.02,6.1-66.42,19.63-8.5,5.13-16.6,12.35-24.08,18.42-2.54,4.75-4.93,5.7-7.97,9.53-17.11,21.53-26.96,46.3-29.07,73.93-.55,7.14,1.14,14.58-.95,21.54l75-78.99c.64.01,1.47-.12,2,0-11.19,17.79-15.07,39.27-17,60-.17,3.07-2.8,2.29-3.86-.35.39-4.78-.96-7.84-3.14-11.65-3.85-1.23-.39-5.58,3.28-4.82,1.87-8.86,4.44-17.54,7.7-26.02-21.18,18.95-39.62,41.52-56.62,63.47-.87.24-1.65,0-2.36-.63-1.32,1.67-3.24,2.62-5,1-1.06.87-1.8.24-2-1-.55-.48-1.07-.97-1.48-1.55-2.41-3.36-.69-20.93-.03-26.17,2.81-22.29,11.2-45.56,24.77-63.57,2.74-3.64,10.92-14.03,14.6-14.65.7-.12,1.42-.1,2.15-.05-1.21-6.38,8.19-13.41,13.3-17.14,14.48-10.57,32.55-16.41,49.58-21.14l8.32-3.32,1.8,1.61.96-2.09c.54-.51,13.81-.25,14.04,2.09.12-1.4,2-1.68,3-1,.9-2.97,3.34-1.99,3,1Z"/>
  <path class="st9" d="M848,227c2.78,1.43,12.87.47,19.71,3.79,23.34,11.34,45.86,29.08,66.53,43.52,2.7,1.88,15.9,9.74,16.85,11.1,1.3,1.87.51,3.33.92,4.9.34,1.29,2.39.03,1.98,1.68-2.44.3-4.69-.39-7-.99v-2l-.72-1.12c-15.58-9.32-31.92-21.1-47.23-32.52-13.47-9.58-27.93-17.99-43.84-22.83l-5.2-3.53c-.55,1.92-1.44,1.94-2,0v-2Z"/>
  <path class="st6" d="M1166,902c-10.11-.46-20.08.55-30,1-1.04-1.66-3.79-1-5.49-1.02-37.49-.39-75.03.22-112.51.02,0-2.96-.89-3.16,2.41-2.85,40.53,3.85,85.83-2.71,127.08.86l18.51,1.99Z"/>
  <path class="st6" d="M114,323l-1.27,11.23c-10.53,30.7-11.72,64.71-2.67,96.2l5.94,15.56c-20.73-33.75-15.63-86.89-2-123Z"/>
  <path class="st6" d="M249,547c-.57-1.78-.93-3.56-1.04-5.45-1.72-31.48-1.14-63.56,1.04-94.55,2.72,4.71.13,10.68-.04,15.46-.99,27.97.17,56.82.04,84.54Z"/>
  <path class="st6" d="M221,837c-2.21,1.92-5.52-.03-8.45-.04-34.07-.12-56.73,1.1-87.98,16.13-3.22,1.55-6.38-.66-6.58,4.92-1.81-.45-5.19.98-6-1.99,8.64-2.22,16.34-7.63,24.73-10.78,22.57-8.47,60.87-13.93,84.27-8.23Z"/>
  <path class="st6" d="M1011,412c1.69,1.04,1.86,2.71,2.02,4.48,2.09,22.54,1.4,64.27-1.31,86.77-.19,1.55-.25,4.43-2.71,3.75,3.17-31.89,3.9-62.93,2-95Z"/>
  <path class="st6" d="M256,382c1.72,1.94,1.17,6.05.99,8.49-1.22,16.39-3.69,33.3-5.3,49.72-.15,1.5-.03,5.57-2.69,4.79,1.53-20.61,3.37-42.7,7-63Z"/>
  <path class="st6" d="M249,553c2.61-.71,2.69,3.08,2.88,4.6,2.05,16.21,3.38,32.94,4.85,49.22.17,1.87.96,3.62-.73,5.18-2.74-18.06-6.55-40.64-7-59Z"/>
  <path class="st6" d="M335,284c2.76-.59,1.88,1.42,2.47,2.98,5.35,14.1,12.42,30.5,13.53,45.02-1.49-.99-1.79-2.66-2.28-4.21-4.62-14.6-8.32-29.42-13.72-43.79Z"/>
  <path class="st6" d="M1172,896c3.69,2.5,8.14,4.33,11,7.99-4.58.14-8.39-1.65-13-1.99l2-6Z"/>
  <path class="st6" d="M196,887c.69,2.63-3.23,2.52-4.77,2.71-4.7.57-9.52.67-14.23,1.29,5.42-4.49,13.5-2.84,19-4Z"/>
  <path class="st6" d="M1020,682c-3.8-4.45-.2-7.02.73-10.78,1.72-6.97,3.29-11.93,5.27-18.22l-6,29Z"/>
  <path class="st4" d="M271,158c.1.63-.12,1.39,0,2,1.66.97,1.95,4.46,1,6,.12,2.05-.21,3.05-1,3-1.97-5.15-3.43-10.24-3-16h1c.24,1.08,1.64,2.67,2,5Z"/>
  <path class="st6" d="M334,281c-2.39-6.16-5.28-12.96-8-19,3.94,4.04,5.81,9.58,7.75,14.76.42,1.11,2.03,3.57.25,4.24Z"/>
  <path class="st6" d="M176,891c-5.31,3.19-12.26,3.58-18,5,4.86-4.04,12.08-4.22,18-5Z"/>
  <path class="st12" d="M273,170c2.65-.57,1.96,1.33,2.49,2.96,1.17,3.64,2.21,7.05,3.51,10.04-4.66-.84-3.52-6.75-6-10,0-.33,0-.67,0-1-1.46-.59-1.45-1.39,0-2Z"/>
  <path class="st6" d="M145,901c1.77,1.67,4.37-.83,5,2-.14,0-1.13.97-2.42,1.04-3.17.18-6.41-.18-9.57-.05.93-2.37,5.09-2.49,6.99-2.99Z"/>
  <path class="st6" d="M1027,650c-1.65-2.21.03-8.21,2-10-.6,4.05-.85,5.96-2,10Z"/>
  <path class="st6" d="M157,896c.56,3.33-6.48,3.3-9,4,2.27-2.39,5.88-3.24,9-4Z"/>
  <path class="st6" d="M1151,882c-1.29-.21-4.31.45-4.92-.13-.31-.29.17-1.95-.28-2.59-1.51-2.15-9.27-.41-7.8-5.28,4.3,2.2,9.49,4.67,13,8Z"/>
  <path class="st3" d="M273,169c0,.33,0,.67,0,1,0,.67,0,1.33,0,2-3.29.66-1.49-1.66-2-3l1-3c.4.87.73,1.87,1,3Z"/>
  <path class="st6" d="M1154,884c2.05.53,4.61.39,4,3-4.38-2.11-2.06-1.02-4-3Z"/>
  <path class="st9" d="M1128,454c-.03,1.3-.12,2.72,0,4-2.97,1.09-3.23-4.91,0-4Z"/>
  <path class="st6" d="M1169,894c-4.09.87-2.63-1.54-3-2,2.04-.39,2.4,1.55,3,2Z"/>
  <path class="st9" d="M316,249.01v.98c-4.16.5-4.16-1.48,0-.98Z"/>
  <path class="st6" d="M256,615c-.05-.32.05-.67,0-1v1Z"/>
  <path class="st6" d="M1153,883c-.26-.27-.87-.97-1-1l1,1Z"/>
  <path class="st6" d="M1164,890c-.34-.33-.69-.65-1-1,.44.1.82.58,1,1Z"/>
  <path class="st6" d="M352,336l-1-1c0,.07.85.24,1,1Z"/>
  <path class="st6" d="M1029,363c-.01-.07-.89-.21-1-1l1,1Z"/>
  <path class="st8" d="M311,124c2.38-1.9,5.55-2.91,9.52-3.03,3.46-6.35,19.31-6.38,23.25-.78l4.22.93c3.72,5.2,6.39,10.83,8.02,16.88.81.43,1.71,1.07,1.61,1.81-1.2,9.28-2.74,17.16-9.61,24.19-.13.27.14.74,0,1l-2,2c-15.79,15.26-43.69,8.36-44.37-16.01-.25-8.81,2.35-21.98,9.37-26.99Z"/>
  <path class="st3" d="M346,167c-.11.11.27,1.26-.69,2.02-21.98,17.49-48.77,1.85-45.23-26.44.82-6.54,8.64-22.87,12.47-28.52s18.49-7.77,24.95-7.06c13.55,1.48,20.81,14.39,22.21,26.77.32,2.8-1.38,13.49-2.14,16.31-1.21,4.53-5.36,11.79-9.58,13.92,5.81-11.67,7.34-12.65,8-26l-.93-.32c2.2-25.42-26.58-34.36-41.15-15.01l-2.93,1.33c-5.76,10.46-8.06,18.48-7.62,30.67.6,16.58,18.87,21.41,32.64,17.85,2.22-.57,8.29-3.92,9.98-5.52.19-.18-.37-2.53,2-2-1.62,3.11-1.41,1.37-2,2Z"/>
  <path class="st12" d="M279,184l15.3,15.69c14.86,11.05,49.22,9.64,63.98-.91,2.93-2.09,4.4-6.82,8.71-7.79-22.57,25.77-72.39,26.4-88-7Z"/>
  <path class="st12" d="M383,165c-3.13,10.53-8.17,16.74-15,25,4.36-7.67,8.62-14.11,12.28-22.27.67-1.49.14-3.27,2.72-2.73Z"/>
  <path class="st12" d="M383,164c.91-3.24.44-8.89,4-11-1,3.65-1.17,8.2-4,11Z"/>
  <path class="st12" d="M271,160c3.33-1,1.91,5.85,2,9-1.35-.47-.89-1.93-1-3-.23-2.26-.59-3.85-1-6Z"/>
  <path class="st10" d="M909,220c4.75,2.72,10.03,3.59,15.51,3.99,15.65,1.15,24.83-.79,37.49-9.99-10.93,12.62-25.21,13.64-41.25,11.75-1.37-.16-9.04-1.87-9.74-2.27-1.18-.69-1.34-2.45-2.01-3.47Z"/>
  <path class="st2" d="M940,171c1.49-.89,2.44-2.66,5-2-.16,7.26,1.58,10.12-3,16,.32-3.91,5.53-14.24-2-14Z"/>
  <path class="st10" d="M891,205c2.34,2.14,8.77,8.56,10.31,9.69,3.01,2.2,3.46-.17,6.69,4.31-6.66-2.2-14.41-7.18-17-14Z"/>
  <path class="st2" d="M935,179c-.45-3.01.94-5.02,3-7,1.12,4.66-1.25,4.84-3,7Z"/>
  <path class="st2" d="M929,183c.77-2.07,3.23-2.16,5-3-2.02,1.71-.68,2.66-5,3Z"/>
  <path class="st2" d="M938,191c.15-2.22,1.71-3.47,3-5-.24,2.14-1.59,3.56-3,5Z"/>
  <path class="st10" d="M963,213c.33-.3.62-.77,1-1-.27.4-.68.66-1,1Z"/>
  <path class="st2" d="M946.5,168c.65.33.65.67,0,1v-1Z"/>
  <path class="st5" d="M631,163c.76,3.22,5.94,14.33,7.83,17.67,4.73,8.36,8.73,13.2,18.79,14.2,7.87.79,26.41-1.09,26.46-11.38,0-1.65-.92-11.96-1.22-12.86-.87-2.66-8.71-2.06-9.87-5.62,2.42-1.03,5.94,2.14,7.36,1.85,1.29-.27,4.59-5.07,8.48-2.69.71.44,5.24,11.88,7.64,14.85,9.55,11.82,24.57,14.42,39.01,12.97,7.5-.75,22.67-8.76,24.29-16.71,1.23-6.04,2.2-11.3,3.68-17.32.36-1.46.79-2.97,2.05-3.95,1.77,8.3-3.22,27.17,3.75,33.74,5.4,5.1,18.23,1.63,21.75-4.74h1c-.09.31.09.69,0,1-.84,3.01-.31,4.08-2,8-1.2,1.63-2.54,2.96-4,4-.06.32.05.67,0,1l-2,2c-5.14,6.68-14.92,3.7-19.57-1.88-.39-2.89-4.72-10.63-5.34-5.99-18,19.54-43.72,15.56-63.8,2.03-1.97-5.4-4.98-3.46-9.01,5.82-5.75.77-9.49,2.46-11.22,5.06-19.12,6.05-42.45-3.53-43.02-24.83-2.88.02-4.23-2.38-4.04-7.21-.89-1.56-2.98-8.87-1.99-10l4.99,1Z"/>
  <path class="st2" d="M456,62c.3.38,1.85,2.68,2,3,.44,1.1.44,2.1,0,3,0,9.86-1.81,17.53-7,26-3.94,5.57-8.01,11.32-12.19,17.25-5.66,7.19-13.19,15.4-22.81,15.75-.65-.03-1.39.1-2,0-.85.48-1.52.48-2,0l-2-1c-2.92,2.91-7.27-2.18-9-5-6.88-14.8-3.67-25.51,5.59-37.91,6.07-8.13,13.85-16.44,22.74-21.26s19.31-9.09,26.67.17Z"/>
  <path class="st9" d="M357,77c.24.07,2.57,2.26,4,3-2.87.14-6.66.77-5-3,.02-.05.87-.04,1,0Z"/>
  <path class="st4" d="M460,73l-1-3c.05.24.75,1.24,1,3Z"/>
  <path class="st4" d="M459,68h-1c0-1,0-2,0-3,.74,1.54.61,1.75,1,3Z"/>
  <path class="st5" d="M567,184c2.6-1.81,3.45-1.96,3.83,1.36.54,4.74-21.41,21.06-27.86,18.44-2.71,2.68-5.56,3.11-6.96-.8-.19-.68-1.46-1.67-1-3,6.03-1.48,13.11-2.08,18.68-4.82,3.79-1.86,10.67-7,11.32-11.18.66.03,1.34-.04,2,0Z"/>
  <path class="st15" d="M182.5,772c.65.33.65.67,0,1v-1Z"/>
  <path class="st8" d="M1043,508l-.85-.63c-.19-.72.8-1.15.85-1.37l.85.62c.18.7-.83,1.19-.85,1.38Z"/>
  <path class="st11" d="M628,172c.05.09,1.75-.47,2.03.65s-.34,4.04-.04,4.35c.32.33,3.66-.36,4.02-.01.23.22-.2,4.95.05,6.44,1.08,6.25,6.12,8.96,8.23,14.28,9.52,5.98,20.18,6.91,31.63,5.15-1.05-4.73,8.11-3.22,11.08-5.36,1.36-.98,1.9-6.36,5.45-8.55,5.32-3.27,3.74,1.47,7.86,4.24,2.63,1.77,22.18,9.24,25.25,9.74,8.94,1.46,25.83-4.73,32.75-10.88,1.18-1.04,1.25-4.62,3.28-5.03,2.59-.52,5.06,8.05,7.37,10.23.31.29,5.43,3.43,5.75,3.52,2.07.62,9.78-.75,11.29-1.79.15-.1-.44-2.78,2-2-.54,3.39-1.64,1.51-2,2s-.31,1.9-1.42,3.03c-2.18,2.22-5.02,3.32-6.58,5.97.26,3.02-1.21,3.48-3,1-2.85,1.06-2.97-1.76-2.9-4.08-6.13-.5-9.42-3.2-9.85-9.57-3.13,4.39-6.88,8.61-11.25,12.65-1.67,4.92-9.87,6.78-14.87,7.88-8.71,1.92-19.58,1.01-28.16-1.27-2.71-.72-8.33-2.64-7.97-5.61l-2.44-.61c-3.36-7.94-7.38-7.44-12.07,1.49l-2.49.12c.32.74.64,1.88.15,2.22-8.88,6.04-20.96,5.87-31.17,3.97-4.89-.91-15.96-4.17-15.98-9.19-3.68,1.19-6.7-6.67-4-9-.81-.05-1.77-.12-2.21-.71-.53-.71-13.39,6.46-11.53,10.41l-2.26,3.3c1.28,1.43.75,1.94-1,1l-3,2c.51,2.22-1.43,3.04-5.82,2.48-3.32.21-11.19.6-12.18-2.48-6.6-1.86-11.64-4.1-15.96-9.52,3.33-3.88-.22-4.58-10.63-2.1-2.7,2.38-5.44,3.81-8.23,4.28-.84,3.81-4.74,6.98-8.44,5.44-1.4,2.12-2.92,3.18-4.74.9-2.02,1.92-3.88-2.57-3.47-4.58.02-.11,1.07,1.6-.53.58-3.83.02-3.29-3.54-4-6,4.9,2.28,4.87-.73,5.7-.97,2.34-.65,5.47-.3,8.54-1.29,4.12-1.33,18.55-12.3,18.77-16.23.02-.92-1.31-.47-2.01-.51,2.63-2.92,5.61-5.36,8.59-7.95,2.1-1.83.2-4.4,5.41-2.05.36.99.63,2.04,1,3,.38.81.38,1.48,0,2,1.48,3.63,2.48,7.5,3.01,11.58,2.66,14.94,22.18,13.47,31.99,7.42l-.84-1.14c2.99-3.32,5.6-6.94,7.84-10.86.97-4.13,2.1-7.56,3-12,.08-.39,1.06-1.23,1-2Z"/>
  <path class="st5" d="M599,196c4.69,2.91,10.21,2.89,16.58-.05l1.42,2.05c-.21.32-.09,1.28-.52,1.97-2.56,4.14-15.35,4.58-19.89,3.94-13.28-1.86-14.58-13.8-14.59-24.91.29-.72.62-.71,1,0,3.94,8.86,5.47,14.63,16,17Z"/>
  <path class="st6" d="M617,198c-5.13-.7-16.47,4.93-18-2,12.24,2.75,17.03-1.74,25-10-.05.21,1.31,1.35.54,2.95s-5.51,5.86-7.54,9.05Z"/>
  <path class="st12" d="M583,179h-1c0-.67,0-1.33,0-2,.2.52.69,1.29,1,2Z"/>
  <path class="st15" d="M76,66c-5.81,2.55-9.21,2.8-15.24,4.26-3.76.91-7.2,3.86-11.76,2.73-.03-.78-.1-1.56.16-2.33.45-1.34,11.44-14.59,13.32-16.68C83.88,30.24,113.75,12.26,145.62,7.12c4.15-.67,7.18-1.45,10.06-2.11,24.99-5.67,69.08,4.89,91.99,14.81,15.51,6.71,36.85,21.68,47.89,34.13,1.15,1.3,1.17,3.24,1.68,3.78,1.05,1.13,3.48.67,4.5,1.52.28.23,3.22,4.46,4.25,5.75,6.69,8.41.13,7.21-4.93,11.57-5.85,5.05-10.63,12.22-15.55,17.45-12.5,13.32-23.52,18.91-25.53,38.97-13.23-5.27-24.44-14.6-36.69-21.81-20.24-11.91-36.41-18.53-58.06-26.94-4.44-1.72-9.18-2.57-13.58-4.43-8.21-9.22.53-4.51,2.34-6.84-2.01-1.21-1.8-5.74-2-5.99-1.55-1.97-1.74,2.14-3.43,2.1-1.58-.04-5.28-1.18-6.56-2.09-1.39-.11-2.53-.49-1.24-1.11-21.66-2.8-43.25-2.76-64.76.11Z"/>
  <path class="st6" d="M76,66c9.16-4.02,30.67-3.47,41.54-3.04,5.03.2,19.54,1.01,23.83,2,1.17.27.51,1.95.63,2.04-21.99-1.61-43.97-3.24-66-1Z"/>
  <path class="st13" d="M776,208c1.37-.22,3.22,1.01,4.37.77,1.52-.32,10.14-8.46,14.03-7.74,9.11,3.52,17.18,8.75,25.56,13.57,5.85.96,4.75-6.83,9.04-3.61-.99.78-6.44,5.45-7,6l-1,2c-.32.33-.71.66-1,1-2.99,3.69-3.35,5.68-1,9,2.73,2.42,5.8,2.93,10.3,3.05,6.03,3.73,10.74,9.12,14.14,16.16,3.79,1.95,5.98,4.21,6.57,6.79l6,5c1.96-.66,2.33.36,1,2,2.73,3.34,6.07,6.03,10.02,8.08.91,2.24.62,3.67-2.02,3.92-2.13.28-7.69,3.2-10.56,3.94-20.45,5.31-52.14,16.76-62.44,36.06-28.77,23.35-43.7,69.22-40,106l2,1c1.83-.83,2.42-2,2.6-2.02.82-.07,2.02,1.05,2.4,1.02l2.05.93c6.46-2.66,12.49-6.14,18.1-10.46l2.85.53,2-1-.03-2.81,14.84-12.53c2.51-3.44,5.24-5.66,8.2-6.66,5.44.84,5.09,7.81,5,12.01.62.14,1.54-.18,2,0,.25.09.65-.04,1,0,2.05.25,2.3.54,5,0l2.01-2.53c18.08-8.16,35.31-17.95,51.69-29.37l2.3.9c3.53-.39,6.7,8.01,5,11-8.11,10.14-15.32,20.85-22,32-1.76.75-2.76,2.42-3,5-.06.34.08.7,0,1l-1.19,1.85c-20.75,40.85-26.76,98.48-.39,140.34,2.19,3.55,1.63,5.24.2,8.82-1.21,3.01-10.23,12.18-13.62,10.99l-3.58.69c-11.43,12.83-26.22,22.99-40.47,32.51l-2.95,3.8c.03,3.05-1.96,4.31-4,2-9.51,5.22-19.32,9.89-29.44,13.99-8.12-1.21-2.5-6.63,1.91-9.03.41-7.04,3.53-6.62,9.2-4.82,2.18-6.11,8.17-10.94,14.71-9.61-.1-5.5,1.28-8.89,4.13-10.17,9.39.15,14.66-3.19,15.81-10l11.15-6.74c-5.4-4.63-.3-9.81,5.52-6.07,3.89-4.39,2.64-10.06-.83-14.26,1.72-6.22-1.03-11.3-8.24-15.26-.74-4.92-2.37-9.27-4.87-13.06-1.2-9.96-1.19-20.07.04-30.32-1.65-6.89-11.55-14.76-16.03-6.45-4.91,3.8-11.69-9.21-6.09-11.23-.29-3.57.86-5.89,3.45-6.95-6.88-4.75-6.38-17.39,2.22-9.09.44-.27,6.08-9.67,3.92-8.83-1.81,5.01-5.83,4.75-8.83.93-5.96,1.94-15.97-1.07-7.4-6.09-3.55,1.7-9.61-12.34-9.5-13.91.23-3.34,7.56-6.58,10.62-5.45.32-4.85-1.99-5.73-6.95-2.65l-5.3-1.89c-3.37,3.43-6.24,3.96-8.62,1.61-5.81.81-13.49-.45-12.82-7.7-10.62-7.01-12.13-12.76-4.53-17.24,1.24-1.5.76-3.48.13-5.17-5.34-7.76-5.88-15.24-1.62-22.46-3.11-6.14-1.67-8.46,3.72-12.12.44-2.99-.63-6.39-3.19-10.2-2.31-5.01,4.72-8.29,6.74-3.76-4.16-.88-.5-6.02,3.3-3.48,3.04,2.03-1.25,8.11-3.3,3.48,5.42,8.15,7.66,5.16,6.71-8.97,1.64-3.38,1.72-5.13,1.45-8.93l6-6.92c-.54-7.36,1.6-11.53,6.42-12.5-1.18-4.78-2.43-10.59,3.32-12.62-2.71-4.77.89-6.76,5.22-7.37-2.13-5.78-.97-9.73,3.5-11.87-2.82-6.12-7.36-4.47-12.2-1.31-10.25-.25-16.49-3.35-7.36-12.28-5.22-.12-6.5-.21-8.45-5.35-2.49,3.27-5.42,6.92-7.85,1.58-3.33,1.76-7.5,1.83-12.5.23-.76,3.92-3.77,6.5-9.05,7.73,1.64,5.72.38,6.25-4.37,7.61s-12.25,2.07-16.93,1.18c-1.68,3.19-4.09,4.82-7.25,4.89.29,6.15-4.42,5.55-8.94,4.79-4.41,5.45-9.73,3.16-8.55-3.69-1.74,2.39-4.36,2.65-7.13,2.75-.39,8.64-7.37,5.51-10.18-.22-3.16,7.73-11.66,4.52-9.35-3.42-4.05-2.09-5.17-.86-3.34,3.7-.09.52-4.5,7.94-5.19,8.77-5.48,6.61-13.29,10.06-16.94-.1,1.49-.81-.9-8.72-1.36-8.88-1.24,2.26-2.83,3.94-5.65,2.73,1.23,6.14-5.99,8.29-8.98,3.25-.42-5.84-2.72-12.17-7.21-4.23l-5.54,2.29c-.94,5.08-3.69,7.13-8.24,6.15.71,7.01-1.41,8.21-7.58,10.37,3.58,4.72.96,6.32-3.96,7.11,0,3.16-.71,6.04-2.14,8.64,11.35,2.16,2.17,12.32-3.4,5.89q-2.91-1.9,0,0c5.18,1.22,4.29,11.08-2.05,10.03s-6.2-17.18-5.22-22.1c-1.8-3.68-1.89-7.73-1.86-11.81l-.86-.11c-1.35,2.94-2.68,1.61-4-4l-1.32-2.22c1.78-27.09-.81-54.38-9.25-80.25l.56-2.53.49-1.76c-2.05-3.13-2.82-9.35,4.87-9.54l6.11-5.6c3.42-3.07,6.21-3.62,8.38-1.63,2.99-2.44,9.46-3.54,9.82,1.18,3.39,4.31,8.16,7.09,14.34,8.35,2.74.25,16.66.94,18,0,.48-.97,1.48-1.63,3-2,.35-.15.64-.79,1-1,.97-2.67,1.97-3.33,3-2,2.37-2.45,3.56-2.67,5.75.07l3.59-1.84c2.88.8,5.43.72,7.67-.23,1.46,1.3,8.62,5.03,10.72,5.78,6.73,2.39,18.53,3.16,25.54,1.98,1.21-.2,10.32-4.34,10.74-4.76.75-1.52,1.97-1.6,3.66-.21,1.45-1.17,9.35-2.84,11.22-2.63l2.12,1.84c.99.12,6.48,3.26,8.75,3.75,16.38,3.53,27.45,3.33,42.25-4.75,1.94-3.48,6.36-8.51,10.44-6.33,4.01,3.5,8.53,5.95,13.56,7.33,1.68-.12,2.54-.93,3-1Z"/>
  <path class="st1" d="M820,220l-2,5.99c.95.69,19.68-.52,23.44.07,2.62.41,4.51,2.45,6.56,2.94.59.14,1.42-.15,2,0,3.06,1.64,8.16,4.51,5,8l-2.16,1.26c-8.23-7.71-18.4-10.05-30.52-7.01-1.32-.3-3.14-.86-3.32-2.25-4.15-.55-3.12-3.81-1.43-6.97.71-1.33,1.98-1.49,2.43-2.03Z"/>
  <path class="st1" d="M821,219l1-2c-.08.08-.1,1.08-1,2Z"/>
  <path class="st8" d="M470,189c4.85,28.85,31.87,29.63,56.48,25.59,2.99-2.93,9.6-3.47,11.52.41.33,0,.68.05,1,0,2.14,6.35,4.65,12.52,6.5,19,9.26,32.51,10.86,68.45,1.01,101.01-.95,3.14-9.66,26.47-11.02,27-2.19.85-1.26-1.56-1.45-2.53-7.17-35.24-15.36-55.07-41.01-81.01-17.32-17.52-46.22-35.56-68.35-45.64-18.08-8.24-36.81-14.64-56.25-18.84-3.85,1.84-.55,2.71-4.42,2.01-1.99-.36-4-.75-6-1.01-.58-3.49,2.75-3.89,4.03-5.46,6.19-7.57,13.67-11.57,18.91-20.37,1.78-3,4.02-10.15,5.01-13.73s1.67-7.79,2.05-11.44c.52-5.1,1.88-9.04,1.99-14.01,3.4.27,7.17-.38,10.51,0,16.21,1.83,40.02,4.38,55.31,8.69,11.14,3.14,6.84,3.95,8.44,12.56,1.13,6.06,3.1,12.41,5.75,17.75Z"/>
  <path class="st1" d="M544,213c3.88-.59,4.41,7.48,4,10,9.9,29.09,10.24,54.6,10,85,.61.73,1.73,3.42,1.76,4.1.62,12.1-15.89,53.4-24.55,62.91h-2.21c-1.13,2.25-2.62,1.81-4,0-2.54,1.06-3.5-.26-4.03-2.72,5.76-39.69-22.02-77.45-51.09-102.08l-.88-3.2c-1.33-1.41-.77-1.92,1-1,21.56,16.93,56,55.05,56,84.5v22.5c3.25-2.21,5.47-6.66,7.38-10.12,25.24-45.83,24.19-101.83,3.62-148.88-.74-1.7-1.28-3.06-1-5,.08,0,.42-1.08.97-1.02-.5,2.61,2.52,4.1,3.03,5.02Z"/>
  <path class="st9" d="M470,189c8.57,17.28,19.97,26.18,40.44,22.94,4.19-.66,18.13-8.24,20.96-7.99.66.06,7.97,8.64,6.6,11.05-2.34.03-6.11-.93-7.36-.72-1.12.19-2.28,1.86-3.64,2.23-11.4,3.1-27.38,1.65-39.01-1-7.41-1.68-12.06-7.42-15.07-13.73-.36-.76-1.73-.77-1.88-1.49-.65-3.03-.07-7.89-1.03-11.3Z"/>
  <path class="st3" d="M452,94c-7.72,10.59-12.28,21.25-23.04,29.46-2.31,1.77-7.8,4.4-10.65,4.5-1.48.05-2.19-.96-2.32-.97,15.04-5.2,21.99-16.7,30.6-28.89,1-1.42,2.96-1.75,4.4-4.11h1Z"/>
  <path class="st8" d="M406,128c.75,2.31-4.81,3.08-5.44,3.03s-.51-2.03-1.13-2.07c-1.22-.08-3.61,1.72-5.4,1.02-2.06-4.39,1.99-8.21-.07-12.23-.6-1.17-2.33-.2-1.96-1.73,5.4-1.21,4.44,2.72,6.27,4.75.42.47,1.61.11,1.73.24,3.52,2.18,5.52,4.52,6,7Z"/>
  <path class="st3" d="M410,126l2,1c.65.07,1.37-.1,2,0-1.08,1.43-6.41,1.42-8,1-.8-.21-4.67-5.56-6-7h1c3.51,3.04,4.37,4.11,9,5Z"/>
  <path class="st3" d="M950,946l-70,2c-15.98.02-32.02-.01-48,0-.4-.47-.73-.47-1,0-134.65.08-269.35,0-404,0-4.28-.85-8.71-.87-13,0h-61v-2c198.95-1.64,398.06,2.19,597,0Z"/>
  <path class="st9" d="M409,948h-49,49Z"/>
  <path class="st9" d="M427,948h-13c3.01-1.67,9.79-1.7,13,0Z"/>
  <path class="st9" d="M832,948c-.33,0-.67,0-1,0l.5-.98.5.98Z"/>
  <path class="st11" d="M790,192c-.83,1.92.7,4.59-4,4,.57-2.78-.24-4.32,4-4Z"/>
  <path class="st15" d="M488,904c-.33-.01-.67,0-1,0l.5-.98.5.98Z"/>
  <path class="st10" d="M457,416c1.3,4.72-.1,13.02-1.28,18.35-2.44,11.02-17.76,49.72-27.51,53.19-.7.25-1.45.37-2.21.46-3.3,1.18-6.7,2.05-10.21,2.62-.11,2.19-1.04,3.32-2.79,3.38l2.02,1.15c15.07,49.88,58.41,96.64,103.69,124.18,84.76,51.54,185.98,48.11,271.29-.33.9-.57,2.32-.91,4-2,.41-1.59,1.36-2.69,2.67-3.6,15.39-10.7,26.14-19.36,39.93-31.93.51-.46,1.21-.73,1.96-.97.78-.26,1.61-.4,2.45-.5,3.44-3.32,13.3-10.7,12.98-15.42-.17-2.58-8.4-15.76-10.16-19.9-8.78-20.74-11.48-56.88-6.38-78.77.66-2.84,2.4-3.09,2.52-3.61.76-3.32-.69-8.3.05-11.6.18-.83,1.78-.68,2.28-1.92,3.81-9.39,5.65-19.7,10.13-28.87,1.03-2.12.95-2.26,3.57-1.9-1.92,7.4-7.38,16.79-9.71,24.79-13.05,44.76-3.44,78.43,21.38,116.07,1.13,1.71,3.33,5.03,3.34,7.14-4.35,3.49-12.35,16.4-16.97,21.53-21.8,24.17-56.69,49.1-87.03,60.47-46.48,20.66-97.78,25.14-148,23-41.19.73-93.48-21.16-127.31-44.19-43.27-29.45-82.62-78.04-99.69-127.81-3.16-7.25-6.41-15.23-7-23-4.35-16.57-8.32-33.42-11.89-50.54l.89-1.46c-3.44-1.05.96-6.48,3-4l1.84.83c8.37-4.65,13.41,1.35,13.76,9.85l7.22,11.43c1.19,8.28,1.4,16.59.64,24.94l1.54,1.95c1.84,1.66,2.17,4.66,1,9,.24.9.66,1.33,1,2,4.74-2.04,8.96-5.67,12.68-10.89,27.43-32.07,33.74-58.02,34.78-100.15.04-1.54.34-2.86,1.54-3.96l2.81,3.25c2.53,7.62,6.48,40.26,2.72,45.98-.42.65-.96,1.22-1.52,1.77Z"/>
  <path class="st11" d="M767,648c-29.5,14.66-65.04,22.59-98,24-14.33.4-28.66.4-43,0-2.38-.03-5.09.65-7-1,56.44-1,94.16-2.81,148-23Z"/>
  <path class="st11" d="M372,425c.64.79,1.19,1.6,1.42,2.49,2.83,10.95,5.89,23.5,8.13,34.54.19.91-.12,1.93-.56,2.97l1,2c2.51,1.21,3.46,6.12,3,9,2.31,7.57,4.44,15.54,7,23-2.21-1.63-3.1-5.84-4.02-8.48-3.21-9.18-6.87-19.22-9.48-28.52-2.97-10.59-4.85-29.37-8.5-38h1c1.25-.72,1.7-.22,1,1Z"/>
  <path class="st0" d="M294,448v-45c-.15,14.97-.16,30.03,0,45Z"/>
  <path class="st0" d="M669,672h-43c13.98.21,29.11.59,43,0Z"/>
  <path class="st0" d="M295,479c-.45-6.55-.89-13.11-1-20,2.28,6.06.4,13.59,1,20Z"/>
  <path class="st0" d="M296,367c.13-5.42.49-9.91,1-15-.55,4.76,1.25,10.83-1,15Z"/>
  <path class="st15" d="M304.5,571c.65.33.65.67,0,1v-1Z"/>
  <path class="st1" d="M451,358c1.67.45,1.58,2.48,1,4,2.81.38,3.22,1.19,1,3,.55,23.66-1.75,48.07-11.81,69.69-7.1,15.26-21.23,35.43-34.38,45.41-1.05.8-.79,1.77-.87,1.83-2.31,1.64-1.72-1.48-1.94-1.93,3.04-1.37,6.27-5.44,8.51-7.99,52.24-59.33,45.27-125.25,8.49-191.01-.57-1.66-.54-2,1-1,1.44.4,2.56,1.23,3.58,2.29,4.83,4.99,15.21,29.02,18.04,36.77,4.14,11.32,6.39,23.14,8.62,34.93l-1.24,4.01Z"/>
  <path class="st1" d="M371,422c7.2-7.06,14.08-15.5,19.42-24.08.83-1.33,4.85-11.76,6.58-9.91,4.3,27.08,9.85,54.84,7.99,82.48-.15,2.19-.7,5.71-1.98,7.52-.92-3.49-.84-5.54-1-9-1.39-1.25-1.65-2.72-1.61-4.47.52-22.18-2.23-43.11-6.05-64.81l-13.69,19c-1.08.81-2.3,1.22-3.66,1.28-1.08,1.25-3.27-.56-3,4-.06,1.61-.68,2.02-2,1-.98.12-.83-.39-1-1-.16-.57.17-1.49,0-2Z"/>
  <path class="st10" d="M474,266l-1,1c-.6.54-1.49,1.32-2.07,1.05-6.98-3.35-22.55-13.65-28.79-18.57l-.15-2.48v-1c13.08,7.09,19.95,10.54,32,20Z"/>
  <path class="st12" d="M473,267c26.06,19.48,55.06,59.83,55.08,93.5,0,4.11-3.59,11.43.92,14.5,3.81,2.9-4.53,5.44-7.6,4.7s-6.76-5.77-3.4-7.7l-2.65-2.26c-7.03-40.64-36.06-76.34-70.9-97.45-2.25-1.36-10.75-6.35-12.11-6.26-.75.05-7.94,10.21-7.78,12.73l-2.56,1.24c-.14.3-.77.62-1,1-.76-1.36-1.32-2.82-2-4,2.15,0,2.74-1.19,3.84-2.66,6.4-8.62,10.65-19.95,19.16-27.34l31,20Z"/>
  <path class="st12" d="M820,400c-.15-2.86,1.83-4.98,3.49-7.01,25.68-31.25,70.73-54.16,110.5-59.99.43,2.06-1.01,2.32-2.3,3.19-12.54,8.48-26.98,16.97-37.69,27.81-6.56-.1-11.01,1.63-15.88,5.99l-2.12-.99c-12.16,7.82-43.51,28.49-56,31Z"/>
  <path class="st10" d="M894,364c-3.79,3.83-9.29,11.36-13,16l-5-11c4.92-3.17,7.66-6.83,14.04-6.6,1.67.06,3.17-1.03,3.96,1.6Z"/>
  <path class="st10" d="M859,412c-.98,1.63-1.84,3.44-3,5,.57-3.27-1.78-5.79,3-5Z"/>
  <path class="st12" d="M759,420c1.19-.12,11.38-14.55,13.49-17.01,10.17-11.91,22.2-25.82,33-37,5.11-5.29,10.91-9.71,16.02-14.98,1.32.65.08,2.72-.3,3.7-3.03,7.77-7.39,20.01-8.9,27.98-.21,1.12,1.02,2.96.69,3.32-1.42.12-3.05-1.28-4.38-.94-1.68.44-1.23,2.25-1.62,2.94-4.93,8.65-15.98,14.61-23,22l-2,1c-5.93,3.75-10.77,7.91-17.72,10.78-2.48,1.03-6.26,3.04-5.28-1.78Z"/>
  <path class="st9" d="M356,138c-2.35.51-2.12-1.16-2.84-2.61-.93-1.9-4.89-11.73-5.4-12.16-.9-.75-3.66-.58-5.12-1.41-1.3-.73-1.43-2.6-2.36-2.83-3.12-.76-12.68-.94-15.6.19-1.68.65-1.59,2.82-3.39,3.61-2.39,1.05-7.51,1.1-10.29,1.21.71-1.28,2.24-4.62,2.97-5.49s13.38-7.99,14.75-8.28c6.92-1.46,19.71,2.7,23.73,8.82.55.84,4.18,9.09,4.25,9.61.25,1.81-.61,7.48-.7,9.34Z"/>
  <path class="st14" d="M763.5,170c.65.33.65.67,0,1v-1Z"/>
  <path class="st4" d="M412,127c-.85-.09-1.71-.01-2-1,.81.16,1.71-.02,2,1Z"/>
  <path class="st12" d="M592,214c-4.26-.38-7.72-.36-11.94-3.56-2.56-1.94-1.39-5.21-6.06-6-3.36-.57-5.27,2.71-7.49,2.62-.47-.02-.56-2.03-1.03-2.1-3.06-.47-5.22,3.92-7.55,5.49-2.06,1.39-8.51,3.98-9.5,5.57-1.39,2.25,4.29,7.46-.44,6.99-.98-2.87-2.33-6.96-4-10,3.95-.59,3.77-4.73,4.01-5,2.52-2.77.62,4.24,4.49,3.02,1.7-.53,3.23-6.75,3.52-7.03.37-.35,2.33.97,3.35.79,1.41-.24,3.17-3.59,5.57-4.34.81-.25,11.9-1.54,12.57-1.48,4.94.5.5,4.06.45,5.54-.1,3.58,11.78,6.7,14.03,9.49Z"/>
  <path class="st12" d="M749,208c-.25-5,5.21-7.24,7.57-9.93,1.79-2.04,1.8-6.3,5.42-6.07.21,2.39.46,6.72,1.94,8.57,1.95,2.43,7.71,2.18,8,2.49.45.49-.33,4.67,1.07,5.94-.12,0-.58.85-1.44.86-7.33.08-12.56-6.79-14.07-6.95-2.07-.21-5.86,3.65-8.49,5.09Z"/>
  <path class="st10" d="M630,198c.82,2.45,2.01,7.23,4,9-3.3,7.33-3.52,2-6.49,1.99-1.54,0-2.89,2.49-5.87,2.04-.25-.04-1.62-3.58-4.64-2.03-1.92-4.95,8.93-12.72,13-11Z"/>
  <path class="st10" d="M698,209c-2.23-.26-8.21,2.23-11.46.93l-.55,3.07-5-3c.64-.64,1.73-3.41,5.07-6.45,1.1-1,1.88-3.52,2.57-3.63,3.48-.57,8.32,5.93,9.36,9.08Z"/>
  <path class="st12" d="M614,211c.98-1.65-.12-6.04.48-6.96,1.79-2.76,8.93-6.79,11.79-9.06.89-.7.66-1.9.75-1.96,2.32-1.65,2.49,3.5,2.98,4.98l-9.24,5.98c-1.48,1.31-2.39,3.74-3.76,5.02-.68.64-2.12,1.49-3,2Z"/>
  <path class="st12" d="M613,212c-.5,1.4-1.52,2.01-3,2,.21-.15-.24-1.8,0-2,.37-.31,2.36.28,3,0Z"/>
  <path class="st7" d="M572,336c1.98.06,5.96.59,6.99-1.52,1.14-2.33-5.47-1.52-5.98-4.05-.17-.86,1.6-2.47,1.94-3.99.97-4.31-1.17-7.85,6.06-7.45.97-3.59-2.08-2.15-1.99-4.47,1.2-3.36,6.81-3.41,7.56-4.45,1.23-1.71-.55-6.33,1.36-7.64,1.6-1.09,5.2.11,5.97-.54.27-.23.42-3.87,2.03-5.47,1.71-1.69,4.03-1.15,5.63-2.37,1.5-1.14,1.39-3.94,3.86-4.04,10.54-.43,1.57,13.72,11.5,9.88,1.8-5.44-4.45-6.19-4.95-9.45-.75-4.82,4.92-7.07,6.58-3.43.76,1.67-2.27,6.36,1.97,7.97,2.29.87,1.39-4.09,4.98-2.98,1.73.53,1.18,4.68,2.91,6.09,1.31,1.07,3.86.65,5.12,1.88,4.03,3.95-6.13-.72-5.54,2.53,1.01,5.48,6.81,5.27,10.55,2.48,2.83-2.11,3.69-5.57,5.05-7.96.42-.74,1.93-.83,2.19-1.24,2.36-3.73-6.78-11.77,8.24-6.78.48.42-2.86,5.68.62,6.87,5.34,1.83,1.97-5.31,7.8-3.94.75.18,1.93,6.8,6.57,5.06-.23-1.29.4-5.54-.04-5.96-.48-.45-5.7.73-4.95-3.04l6.99-1c-3.4,6.01,4.05,5.77,5.78,2.79,1.01-1.73-1.21-5.23,1.71-4.78,4.58,2.54.64,6.1,1.61,9.34,1.39,4.61,5.24-1.32,5.59-1.38,4.24-.7,10.08,3.83,7.31-5.97,7.36,3.12,6.26-2.23,8.99-3.57,1.29-.63,2.95.6,4.38.45,2.15-.23,14.98-1.93,15.65-2.35,3.05-1.95-2.1-5.58-1.03-6.53,1.32.62,9.67-3.6,10-4.04.42-.55-1.47-3.54-1-3.96,3.65-1.3,10.71,1.53,13.36,1.04.71-.13.74-2.01,1.13-2.07,3.66-.59,2.95,2.57,3.53,3.02,2.25,1.75,2.3-4.05,5.49-4.05,2.97,0,2.92,4.47,3.64,4.91,1.49.9,5.67-1.13,6.74,1.78,1.69,4.59-8.06,6.07-3.88,8.87.33.22,7.11,2.49,7.5,2.47,2.59-.07,5.32-4.78,11.8-2.77,3.3,1.02,2.96,7.73,8.98,4.97l5.7,4.84c-5.8-1.98-6.03,2.64-7.5,7.01-3.82-.07-2.23-6.71-2.5-9.01-8.45-.12-3.13,7.62-4.06,10.37-.75,2.22-5.38,1.21-5.93,3.15-.82,2.88,3.38,3.78,2.99,6.47-11.03-4.39-4.28,11.34-4.99,12-9.28-2.05-4.98,7.61-7.18,11.29-.53.89-5.72,5.87-5.82,6.43-.46,2.44,1.08,4.3,1.02,5.71-.03.58-1.72.41-1.98,1.28-1.51,5.08.82,11.94-2.05,17.29-1.66,1.14-9.29-4.01-6.99-7,.12-.16,4.12.13,1.99-1.99s-1.84,1.88-1.99,1.99c-.46.34-3.86-.26-5,0-1.1,4.06,4.14,9.14,4.01,12.4-.18,4.39-5.21,4.91-5.9,7.29-.77,2.67,1.51,3.7,1.62,5.58.24,4.02-3.46,7.59-3.46,10.02,0,5.82,8.45,13.88,4.8,19.28-1.55,2.3-8.23,3.77-3.12,8.7,1.48,1.42,6.31,4.71,7.55,6.72.94,1.54-.18,4.16,1.09,5.11,1,.75,8.73,2.58,9.41,1.89.26-1.83-1.24-4.69,1.99-4-.88,10.34,4.17,2.8,6.71,2.12,2.15-.58,3.83,1.82,5.79,1.82s4.09-2.72,6.89-1.88-1.82,7.32,5.61,5.94c-.24,5.38-5.84,1.97-8.39,2.26-.54.06-5.27,2.64-5.43,2.9-1.64,2.8,1.65,4.43,2.27,5.88,2.31,5.4.57,8.6,9.54,5.95.49.5-.87,3.46-1.49,4-2.11,1.84-5.2-.33-4.51,2.99,2.61,1.32,7.7-.22,9.31.16,1.49.35,2.41,3.09,4.08,2.8,3.87-.68,1.33-6.67,1.62-6.95,2.84-2.68,5.37,6.43,5.06,8.33-.09.55-6.62,4.68-4.07,9.67-4.92,1.47-2.85-7.08-8-4.5,1.33,3.88,3.09,9.31,8.43,8.5,1.32-.2,6.87-4.46,6.59-.51-.07,1.03-.91,7.09-1.14,7.38-.29.35-8.53,2.44-8.86,2.13-1.96-1.85,3.1-1.55,1.98-4.49-.46-1.2-2.21-1.85-3.48-1.5-2.14.59-1.01,4.56-1.74,5.78-1.69,2.87-4.76-.77-.34,6.32,1.11,1.78-.29,4.39,3.57,2.39,1.51-.78,3.07-4.05,4.64-4.35.45-.08,7.95,2.63,8.66,3.04,1.78,1.03,5.73,7.25,5.75,9.26.12,9.06-2.6,21.78.14,30.85.42,1.39,2.17,2.01,2.6,3.4,1.44,4.72-.51,11.49,8.2,10.31-2.75,4.78,2.01,3.93,2.79,7.77.57,2.78-1.05,4.91-.64,6.54.32,1.28,2.38,1.96,2.84,4.2.35,1.71.3,6.11-.19,7.78-.08.26-2.59,4.54-2.82,4.7-1.24.87-3.43-3.14-5.98-1.5-3.75,2.41,2.49,2.74,2,4.99-1.19,3.34-11.7,7.25-12.51,8.5-.91,1.41.08,3.53-1.49,5.51-3.72,4.71-15.33,3.82-16.89,5.61-.87,1,1.28,6.69-1.52,9.02-2.25,1.86-4.17-.68-6.54.34-.36.16-5.66,4.55-6.07,5.02-1.05,1.19-.91,3.89-2.6,4.47s-6.56-1.74-7.36-.94c-.2.2.13,3.72-1.07,5.44-.26.37-9.24,5.38-4.42,5.58,6.31.27,19.61-7.32,25.45-10.56,1.73-.96,2.63-2.05,5.04-1.46-121.25,76.35-279.98,39.49-356.81-80.69-6.29-9.84-20.52-33.12-20.19-44.31l1.43-1.86c3.91-.89,7.76-2.27,11.57-4.14,17.37-18.86,28.23-46.83,31-72,.75-3.67,4.55-2.18,5.08,1.14-.69,2.47-5.66,20.36,1.29,16.09,1.02-2.9,2.56-4.83,4.63-5.77-6.71.16-4.99-13.59.79-14.59l1.14-10.3c-1.32-3.43-1.62-6.57,2.21-8.36-3.61-4.19-.83-12.7,5.32-11.15-1.17-5.58,2.89-6.57,7.38-4.93-4.22-7.58-.29-10.66,7.2-7.25,4.97-5.89,14.13-5.22,18.6.96,4.06-2.18,6.51-2.13,7.35.15,1.63,5.98,3.28,7.02,9.29,4.74,1.23-.47,1.59-1.68,1.71-1.74,1.66-.71,2.3-.7,4,0,1.85.24,1.85,1.24,0,3,1.08,2.5,5.54,3.34,6.53-.68,2.79-.84,5.28-2.28,7.47-4.32l-.87-2.3c9.12-11.12,11.5-26.13,12.66-40.28l2.21-2.41c.47-1.06.67-1.99,0-3-2.99-1.56-1.22-11.03,1-13,.11-.02-.02-1.55,1.99-.99-1.94,4.77,2.29,9.82,2.7,12.66.27,1.86-.92,5.73-.68,8.82.18,2.33,1.56,10.7,3.61,11.39,5.14,1.75,3.71-4.25,2.37-7.87-.76-.02-2.88.14-3,0-1.1-1.31.7-6.25,3,0Z"/>
  <path class="st12" d="M819,229c12.15,1.62,18.49-5.25,31.06,4.46,2.95,2.27.21,1.63,4.94,3.54.7.33.69.66,0,1,6.58,7.26,12.78,14.85,18.61,22.77,2.9,3.96-.19,5.31-3.65,6.61.16,1.68-.84,3.41-2.62,3.56-.69.06-9.31-7.24-10.34-8.94-.37-.64-.64-1.35-1-2-2.18-1.52-4.18-3.18-6-5-11.26-6.54-7.35-5.28-13.99-14.51-3.78-5.26-7.77-9.01-14.01-5.49,1.28-4.65-4.09-1.22-3-6Z"/>
  <path class="st10" d="M558,308c3.62-.7.37,4.68,4,4,.85,4.44-.75,8.99-1,13,1.61.47,1.57,2.2,0,3-.96,11.45-1.81,19.71-5.73,30.76-2.33,6.57-4.63,8.65-8.27,14.24-4.02,3.52-8.94,6.24-14,5,.15-.91-.22-2.23,0-3,.42-1.44,5.52-8.03,6.86-10.64,7.25-14.08,18.02-40.99,18.14-56.36Z"/>
  <path class="st10" d="M855,238c3.36,1.27,6.36,3.93,9,8,6.92,8.05,12.91,17.3,19,26-1.21.48-2.21,1.14-3,2-5.62.55-11.45-.47-15,0,2.27-4.7-4.31-6.36-6.59-8.95-1.13-1.29-.94-2.24-1.41-3.05l9.51,6.99c2.43.6.92-1.38,1.74-2.66.72-1.13,4.37-2.01,4.63-2.44,1.42-2.38-8.05-12.08-9.88-14.38-3.02-3.8-6.34-7-8-11.5Z"/>
  <path class="st7" d="M841,580c-15.36,14.82-29.11,25.43-47,37-1.04-5.29,5-6.23,8.48-9.02,9.64-7.74,19.39-13.17,28.56-22.44,2.69-2.72,5.72-10.67,9.96-5.54Z"/>
  <path class="st7" d="M803.01,444.01c.19.18-.12,2.18,0,2.99-3.56-.74-5.82,1.39-9,2l-1-6.99c.43-.4,9.64,1.64,10,2Z"/>
  <path class="st10" d="M856,260c-2.47-.67-5.91-2.15-6-5,3.94,2.29,3.11-.14,6,5Z"/>
  <rect class="st7" x="796.36" y="410.83" width="2.28" height="6.35" transform="translate(23.26 870.02) rotate(-57.93)"/>
  <path class="st7" d="M831,575.01c-.25,2.17-.63,4.73-2.99,3.99v-3.99s2.99,0,2.99,0Z"/>
  <rect class="st7" x="788.01" y="454.01" width="2.99" height="1.99"/>
  <rect class="st7" x="780.01" y="446.01" width="1.99" height="2.99"/>
  <circle class="st7" cx="788.02" cy="433.98" r="1.23"/>
  <circle class="st7" cx="792.02" cy="450.98" r="1.23"/>
  <path class="st7" d="M754,421c-.27.12-.45,1.47-1.99.99-.06-.65.06-1.34,0-1.99l2,1Z"/>
  <path class="st7" d="M784,410c-.62.65-.97,1.1-2,1,.6-.38,1.04-1.08,2-1Z"/>
  <path class="st13" d="M422,280c.81-1.82,1.17-4.37,2.12-6.17.59-1.13,6.69-9.26,7.36-9.85,2.92-2.59,2.13.45,3.26.97,33.44,15.4,65.32,50.03,77.74,85.08,2.56,7.22,3.53,14.7,5.52,21.98-2.9-.84-4.71,2.04-7.28,1.85-2.81-.21-3.11-3.67-5.69-4.47-.36-.11-6.79-.46-7.56-.44-2.16.05-1.92,3.4-5.2,3.9-2.31.35-7.49-4.11-7.29.64.05,1.1,3.33,4.69.95,6.46-1.9,1.41-10.4-5.37-4.93,7.05-.82.85-4.95-3.53-6.89-1.88-.21.18-1.95,4.91-1.91,5.19.18,1.18,2.45,2.52,1.88,5.05-.21.94-2.13.93-2.59,1.62-1.4,2.11.51,3.9.42,5.63-.2,3.95-1.6,8.1-.95,12.35-7.18-.92-3.36,5.49-5.96,10.03,3.11.15,6.32.69,5.06,4.46-.31.93-2.52.33-3.53,1.56-1.65,2.01-.17,5.21-6.03,4.03-6.37-1.29-1.16-12.99-.54-16.58.56-3.22-.49-2.51-2.96-2.45,2.03-18.42.32-32.96-4-51-.15-.65-.69-1.54-1-3,.41-1.49.62-3.17-1-4-2.58-12.65-4.58-25.72-9.26-38.24-4.97-13.31-12.78-27.39-19.74-39.76Z"/>
  <path class="st12" d="M377,420c6.04-7,11.12-15.59,16.71-22.73.64-.81-.03-1.84,2.28-1.26.86,11.56,3.95,22.97,4.99,34.51,1.15,12.75.44,25.74,1.01,38.49-3.37.11-2.84.66-3.03-2.48-.4-6.78,2.48-10.71.73-18.73s-6.89-11.27-9.16-16.83c-.92-2.24-.29-5.64-1.46-7.35-.15-.22-4.27-2.72-4.54-2.71-2.89.05-8.5,5.25-7.54-.89Z"/>
  <path class="st13" d="M374,424c.88,14.98,8.15,32.37,11.56,46.95.36,1.53,1.27,4.09-.56,5.05-.9-2.97-2.02-5.69-3-9l-1-2c-3.74-13.11-6.21-26.66-9-40,.11-.01.64-1.41,2-1Z"/>
  <path class="st13" d="M426,488c-3.77,4.09-6.7,6.88-13,6,.02-.67.99-4.66,1.18-4.82.89-.76,10.13-2.89,11.82-1.18Z"/>
  <path class="st10" d="M382,467c-.08-.28-.7-.96-1-2l1,2Z"/>
  <path class="st10" d="M452,362c-.29-1.34-.73-2.66-1-4l1.99-1c-.1,1.6.65,4.19-.99,5Z"/>
  <path class="st5" d="M864,246c-.16-.18-1.49.02-1.97-.53-1.74-1.98-3.15-6.96-7.03-7.47-.11-.3.12-.72,0-1,3.58,1.45,7.82,5.16,9,9Z"/>
  <path class="st13" d="M883,272v1c-.16,0-1.5.85-3,1-.47-2.67.63-2.04,3-2Z"/>
  <path class="st13" d="M446,469c.37-2.81-1.29-5.84-1.07-7.34.12-.78,2.2-1.16,2.93-2.26,3.11-4.75,5.6-8.21,5.27-13.99-.11-2.02,1.19-2.29,1.86-1.4-.49,3.71.72,8.83-.02,12.29-.08.35-4.37,3.54-4.81,5.42s1.51,4.97.84,7.29c-1.61.18-3.45-.23-5,0-.6,4.53-4.52,3.47-2.51.98.7-.87,1.54-.84,2.51-.98Z"/>
  <path class="st13" d="M547,373c-3.31,5.08-4.53,3.78-6.45,6.05-.72.85-.9,3.71-2.08,3.96-1.23.26-2.37-1.98-3.82-1.87-1.1.08-3.83,2.77-4.66,1.86-1.37-1.51,1.9-4.07,2.99-5,3.83-3.24,3.65-1.31,8.08-2.42,2.12-.53,3.73-2.23,5.92-2.58Z"/>
  <path class="st13" d="M676,299.99c-.31.31-4.75-.18-6,0-1.47-6.33,9.19-3.17,6,0Z"/>
  <path class="st13" d="M768,313.01c-.24,10.03-6.03,1.98-3.99,0,.26-.25,3.02.15,3.99,0Z"/>
  <path class="st13" d="M458.99,437v3.99c-6.15,1.17-5.37-3.8,0-3.99Z"/>
  <circle class="st13" cx="769" cy="298.99" r="1.94"/>
  <path class="st13" d="M647,304.01c1.07.94-2.03,4.06-2.99,2.99-1.5-1.69,1.28-4.5,2.99-2.99Z"/>
  <rect class="st13" x="564.99" y="348" width="4.01" height="2" transform="translate(216.72 915.21) rotate(-89.87)"/>
  <path class="st13" d="M443.99,477.01c1.02,1.04-1.99,4.01-2.99,2.99s1.99-4.01,2.99-2.99Z"/>
  <rect class="st13" x="595.01" y="315.01" width="2.99" height="1.99"/>
  <path class="st13" d="M561,325c2.98-.88,3.18,3.78,0,3,.08-.99-.06-2.01,0-3Z"/>
  <rect class="st13" x="594.01" y="304.01" width="1.99" height="2.99"/>
  <circle class="st13" cx="564.02" cy="354.98" r="1.23"/>
  <circle class="st13" cx="555.02" cy="370.98" r="1.23"/>
  <circle class="st13" cx="477.02" cy="398.98" r="1.23"/>
</svg>